solid OpenSCAD_Model
  facet normal 0 0 -1
    outer loop
      vertex -19.25 0 10
      vertex -18.8293 4.0023 10
      vertex -18.8293 -4.0023 10
    endloop
  endfacet
  facet normal 0 0 -1
    outer loop
      vertex -18.8293 -4.0023 10
      vertex -18.8293 4.0023 10
      vertex -17.5858 7.82968 10
    endloop
  endfacet
  facet normal 0 0 -1
    outer loop
      vertex -18.8293 -4.0023 10
      vertex -17.5858 7.82968 10
      vertex -15.5736 11.3149 10
    endloop
  endfacet
  facet normal 0 0 -1
    outer loop
      vertex -18.8293 -4.0023 10
      vertex -15.5736 11.3149 10
      vertex -12.8808 14.3055 10
    endloop
  endfacet
  facet normal 0 0 -1
    outer loop
      vertex -18.8293 -4.0023 10
      vertex -12.8808 14.3055 10
      vertex -9.625 16.671 10
    endloop
  endfacet
  facet normal 0 0 -1
    outer loop
      vertex -18.8293 -4.0023 10
      vertex -9.625 16.671 10
      vertex -5.94858 18.3078 10
    endloop
  endfacet
  facet normal 0 0 -1
    outer loop
      vertex -18.8293 -4.0023 10
      vertex -5.94858 18.3078 10
      vertex -2.01217 19.1445 10
    endloop
  endfacet
  facet normal 0 0 -1
    outer loop
      vertex -18.8293 -4.0023 10
      vertex -2.01217 19.1445 10
      vertex 2.01217 19.1445 10
    endloop
  endfacet
  facet normal 0 0 -1
    outer loop
      vertex -18.8293 -4.0023 10
      vertex 2.01217 19.1445 10
      vertex 5.94858 18.3078 10
    endloop
  endfacet
  facet normal 0 0 -1
    outer loop
      vertex -18.8293 -4.0023 10
      vertex 5.94858 18.3078 10
      vertex 9.625 16.671 10
    endloop
  endfacet
  facet normal 0 0 -1
    outer loop
      vertex -18.8293 -4.0023 10
      vertex 9.625 16.671 10
      vertex 12.8808 14.3055 10
    endloop
  endfacet
  facet normal 0 0 -1
    outer loop
      vertex -18.8293 -4.0023 10
      vertex 12.8808 14.3055 10
      vertex 15.5736 11.3149 10
    endloop
  endfacet
  facet normal 0 0 -1
    outer loop
      vertex -18.8293 -4.0023 10
      vertex 15.5736 11.3149 10
      vertex 17.5858 7.82968 10
    endloop
  endfacet
  facet normal 0 0 -1
    outer loop
      vertex 1.29904 0.75 10
      vertex 17.5858 7.82968 10
      vertex 18.8293 4.0023 10
    endloop
  endfacet
  facet normal 0 0 -1
    outer loop
      vertex -18.8293 -4.0023 10
      vertex 19.25 0 10
      vertex 18.8293 -4.0023 10
    endloop
  endfacet
  facet normal 0 0 -1
    outer loop
      vertex -18.8293 -4.0023 10
      vertex 18.8293 -4.0023 10
      vertex 17.5858 -7.82968 10
    endloop
  endfacet
  facet normal 0 0 -1
    outer loop
      vertex -18.8293 -4.0023 10
      vertex 17.5858 -7.82968 10
      vertex 15.5736 -11.3149 10
    endloop
  endfacet
  facet normal 0 0 -1
    outer loop
      vertex -18.8293 -4.0023 10
      vertex 15.5736 -11.3149 10
      vertex 12.8808 -14.3055 10
    endloop
  endfacet
  facet normal 0 0 -1
    outer loop
      vertex -18.8293 -4.0023 10
      vertex 12.8808 -14.3055 10
      vertex 9.625 -16.671 10
    endloop
  endfacet
  facet normal 0 0 -1
    outer loop
      vertex -18.8293 -4.0023 10
      vertex 9.625 -16.671 10
      vertex 5.94858 -18.3078 10
    endloop
  endfacet
  facet normal 0 0 -1
    outer loop
      vertex -18.8293 -4.0023 10
      vertex 5.94858 -18.3078 10
      vertex 2.01217 -19.1445 10
    endloop
  endfacet
  facet normal 0 0 -1
    outer loop
      vertex -18.8293 -4.0023 10
      vertex 2.01217 -19.1445 10
      vertex -2.01217 -19.1445 10
    endloop
  endfacet
  facet normal 0 0 -1
    outer loop
      vertex -18.8293 -4.0023 10
      vertex -2.01217 -19.1445 10
      vertex -5.94858 -18.3078 10
    endloop
  endfacet
  facet normal 0 0 -1
    outer loop
      vertex -18.8293 -4.0023 10
      vertex -5.94858 -18.3078 10
      vertex -9.625 -16.671 10
    endloop
  endfacet
  facet normal 0 0 -1
    outer loop
      vertex -18.8293 -4.0023 10
      vertex -9.625 -16.671 10
      vertex -12.8808 -14.3055 10
    endloop
  endfacet
  facet normal 0 0 -1
    outer loop
      vertex -18.8293 -4.0023 10
      vertex -12.8808 -14.3055 10
      vertex -15.5736 -11.3149 10
    endloop
  endfacet
  facet normal 0 0 -1
    outer loop
      vertex -18.8293 -4.0023 10
      vertex -15.5736 -11.3149 10
      vertex -17.5858 -7.82968 10
    endloop
  endfacet
  facet normal 0 0 -1
    outer loop
      vertex -1.29904 0.75 10
      vertex -18.8293 -4.0023 10
      vertex -0.75 1.29904 10
    endloop
  endfacet
  facet normal 0 0 -1
    outer loop
      vertex 1.29904 0.75 10
      vertex 18.8293 4.0023 10
      vertex 1.5 0 10
    endloop
  endfacet
  facet normal 0 0 -1
    outer loop
      vertex -18.8293 -4.0023 10
      vertex -1.29904 -0.75 10
      vertex -0.75 -1.29904 10
    endloop
  endfacet
  facet normal 0 0 -1
    outer loop
      vertex 1.5 0 10
      vertex 19.25 0 10
      vertex 1.29904 -0.75 10
    endloop
  endfacet
  facet normal 0 0 -1
    outer loop
      vertex -18.8293 -4.0023 10
      vertex -0.75 -1.29904 10
      vertex 0 -1.5 10
    endloop
  endfacet
  facet normal 0 0 -1
    outer loop
      vertex -18.8293 -4.0023 10
      vertex 0 -1.5 10
      vertex 19.25 0 10
    endloop
  endfacet
  facet normal 0 0 -1
    outer loop
      vertex 0 -1.5 10
      vertex 0.75 -1.29904 10
      vertex 19.25 0 10
    endloop
  endfacet
  facet normal 0 0 -1
    outer loop
      vertex 1.5 0 10
      vertex 18.8293 4.0023 10
      vertex 19.25 0 10
    endloop
  endfacet
  facet normal 0 0 -1
    outer loop
      vertex 1.29904 -0.75 10
      vertex 19.25 0 10
      vertex 0.75 -1.29904 10
    endloop
  endfacet
  facet normal 0 0 -1
    outer loop
      vertex 0.75 1.29904 10
      vertex 17.5858 7.82968 10
      vertex 1.29904 0.75 10
    endloop
  endfacet
  facet normal 0 0 -1
    outer loop
      vertex 0 1.5 10
      vertex 17.5858 7.82968 10
      vertex 0.75 1.29904 10
    endloop
  endfacet
  facet normal 0 0 -1
    outer loop
      vertex -1.29904 -0.75 10
      vertex -18.8293 -4.0023 10
      vertex -1.5 0 10
    endloop
  endfacet
  facet normal 0 0 -1
    outer loop
      vertex -0.75 1.29904 10
      vertex 17.5858 7.82968 10
      vertex 0 1.5 10
    endloop
  endfacet
  facet normal 0 0 -1
    outer loop
      vertex -18.8293 -4.0023 10
      vertex 17.5858 7.82968 10
      vertex -0.75 1.29904 10
    endloop
  endfacet
  facet normal 0 0 -1
    outer loop
      vertex -1.5 0 10
      vertex -18.8293 -4.0023 10
      vertex -1.29904 0.75 10
    endloop
  endfacet
  facet normal -0.994522 0.104529 0
    outer loop
      vertex -19.25 0 10
      vertex -19.25 0 30
      vertex -18.8293 4.0023 10
    endloop
  endfacet
  facet normal -0.994522 0.104529 0
    outer loop
      vertex -18.8293 4.0023 10
      vertex -19.25 0 30
      vertex -18.8293 4.0023 30
    endloop
  endfacet
  facet normal -0.994522 -0.104529 0
    outer loop
      vertex -19.25 0 10
      vertex -18.8293 -4.0023 10
      vertex -19.25 0 30
    endloop
  endfacet
  facet normal -0.994522 -0.104529 0
    outer loop
      vertex -19.25 0 30
      vertex -18.8293 -4.0023 10
      vertex -18.8293 -4.0023 30
    endloop
  endfacet
  facet normal -0.951057 -0.309017 0
    outer loop
      vertex -18.8293 -4.0023 10
      vertex -17.5858 -7.82968 10
      vertex -18.8293 -4.0023 30
    endloop
  endfacet
  facet normal -0.951057 -0.309017 0
    outer loop
      vertex -18.8293 -4.0023 30
      vertex -17.5858 -7.82968 10
      vertex -17.5858 -7.82968 30
    endloop
  endfacet
  facet normal -0.866025 -0.5 0
    outer loop
      vertex -17.5858 -7.82968 10
      vertex -15.5736 -11.3149 10
      vertex -17.5858 -7.82968 30
    endloop
  endfacet
  facet normal -0.866025 -0.5 0
    outer loop
      vertex -17.5858 -7.82968 30
      vertex -15.5736 -11.3149 10
      vertex -15.5736 -11.3149 30
    endloop
  endfacet
  facet normal -0.743145 -0.669131 0
    outer loop
      vertex -15.5736 -11.3149 10
      vertex -12.8808 -14.3055 10
      vertex -15.5736 -11.3149 30
    endloop
  endfacet
  facet normal -0.743145 -0.669131 0
    outer loop
      vertex -15.5736 -11.3149 30
      vertex -12.8808 -14.3055 10
      vertex -12.8808 -14.3055 30
    endloop
  endfacet
  facet normal -0.587785 -0.809017 0
    outer loop
      vertex -12.8808 -14.3055 30
      vertex -12.8808 -14.3055 10
      vertex -9.625 -16.671 10
    endloop
  endfacet
  facet normal -0.587785 -0.809017 0
    outer loop
      vertex -9.625 -16.671 30
      vertex -12.8808 -14.3055 30
      vertex -9.625 -16.671 10
    endloop
  endfacet
  facet normal -0.406737 -0.913545 0
    outer loop
      vertex -9.625 -16.671 30
      vertex -9.625 -16.671 10
      vertex -5.94858 -18.3078 10
    endloop
  endfacet
  facet normal -0.406737 -0.913545 0
    outer loop
      vertex -5.94858 -18.3078 30
      vertex -9.625 -16.671 30
      vertex -5.94858 -18.3078 10
    endloop
  endfacet
  facet normal -0.207912 -0.978148 0
    outer loop
      vertex -5.94858 -18.3078 30
      vertex -5.94858 -18.3078 10
      vertex -2.01217 -19.1445 10
    endloop
  endfacet
  facet normal -0.207912 -0.978148 0
    outer loop
      vertex -2.01217 -19.1445 30
      vertex -5.94858 -18.3078 30
      vertex -2.01217 -19.1445 10
    endloop
  endfacet
  facet normal 0 -1 0
    outer loop
      vertex -2.01217 -19.1445 30
      vertex -2.01217 -19.1445 10
      vertex 2.01217 -19.1445 10
    endloop
  endfacet
  facet normal 0 -1 0
    outer loop
      vertex 2.01217 -19.1445 30
      vertex -2.01217 -19.1445 30
      vertex 2.01217 -19.1445 10
    endloop
  endfacet
  facet normal 0.207912 -0.978148 0
    outer loop
      vertex 2.01217 -19.1445 30
      vertex 2.01217 -19.1445 10
      vertex 5.94858 -18.3078 10
    endloop
  endfacet
  facet normal 0.207912 -0.978148 0
    outer loop
      vertex 5.94858 -18.3078 30
      vertex 2.01217 -19.1445 30
      vertex 5.94858 -18.3078 10
    endloop
  endfacet
  facet normal 0.406737 -0.913545 0
    outer loop
      vertex 5.94858 -18.3078 30
      vertex 5.94858 -18.3078 10
      vertex 9.625 -16.671 10
    endloop
  endfacet
  facet normal 0.406737 -0.913545 0
    outer loop
      vertex 9.625 -16.671 30
      vertex 5.94858 -18.3078 30
      vertex 9.625 -16.671 10
    endloop
  endfacet
  facet normal 0.587785 -0.809017 0
    outer loop
      vertex 9.625 -16.671 30
      vertex 9.625 -16.671 10
      vertex 12.8808 -14.3055 10
    endloop
  endfacet
  facet normal 0.587785 -0.809017 0
    outer loop
      vertex 12.8808 -14.3055 30
      vertex 9.625 -16.671 30
      vertex 12.8808 -14.3055 10
    endloop
  endfacet
  facet normal 0.743145 -0.669131 0
    outer loop
      vertex 12.8808 -14.3055 30
      vertex 12.8808 -14.3055 10
      vertex 15.5736 -11.3149 10
    endloop
  endfacet
  facet normal 0.743145 -0.669131 0
    outer loop
      vertex 15.5736 -11.3149 30
      vertex 12.8808 -14.3055 30
      vertex 15.5736 -11.3149 10
    endloop
  endfacet
  facet normal 0.866025 -0.5 0
    outer loop
      vertex 15.5736 -11.3149 30
      vertex 15.5736 -11.3149 10
      vertex 17.5858 -7.82968 10
    endloop
  endfacet
  facet normal 0.866025 -0.5 0
    outer loop
      vertex 17.5858 -7.82968 30
      vertex 15.5736 -11.3149 30
      vertex 17.5858 -7.82968 10
    endloop
  endfacet
  facet normal 0.951057 -0.309017 0
    outer loop
      vertex 17.5858 -7.82968 30
      vertex 17.5858 -7.82968 10
      vertex 18.8293 -4.0023 10
    endloop
  endfacet
  facet normal 0.951057 -0.309017 0
    outer loop
      vertex 18.8293 -4.0023 30
      vertex 17.5858 -7.82968 30
      vertex 18.8293 -4.0023 10
    endloop
  endfacet
  facet normal 0.994522 -0.104529 0
    outer loop
      vertex 18.8293 -4.0023 30
      vertex 18.8293 -4.0023 10
      vertex 19.25 0 10
    endloop
  endfacet
  facet normal 0.994522 -0.104529 0
    outer loop
      vertex 19.25 0 30
      vertex 18.8293 -4.0023 30
      vertex 19.25 0 10
    endloop
  endfacet
  facet normal 0.994522 0.104529 0
    outer loop
      vertex 19.25 0 10
      vertex 18.8293 4.0023 10
      vertex 18.8293 4.0023 30
    endloop
  endfacet
  facet normal 0.994522 0.104529 0
    outer loop
      vertex 19.25 0 30
      vertex 19.25 0 10
      vertex 18.8293 4.0023 30
    endloop
  endfacet
  facet normal 0.951057 0.309017 0
    outer loop
      vertex 18.8293 4.0023 10
      vertex 17.5858 7.82968 10
      vertex 17.5858 7.82968 30
    endloop
  endfacet
  facet normal 0.951057 0.309017 0
    outer loop
      vertex 18.8293 4.0023 30
      vertex 18.8293 4.0023 10
      vertex 17.5858 7.82968 30
    endloop
  endfacet
  facet normal 0.866025 0.5 0
    outer loop
      vertex 17.5858 7.82968 10
      vertex 15.5736 11.3149 10
      vertex 15.5736 11.3149 30
    endloop
  endfacet
  facet normal 0.866025 0.5 0
    outer loop
      vertex 17.5858 7.82968 30
      vertex 17.5858 7.82968 10
      vertex 15.5736 11.3149 30
    endloop
  endfacet
  facet normal 0.743145 0.669131 0
    outer loop
      vertex 15.5736 11.3149 10
      vertex 12.8808 14.3055 10
      vertex 12.8808 14.3055 30
    endloop
  endfacet
  facet normal 0.743145 0.669131 0
    outer loop
      vertex 15.5736 11.3149 30
      vertex 15.5736 11.3149 10
      vertex 12.8808 14.3055 30
    endloop
  endfacet
  facet normal 0.587785 0.809017 0
    outer loop
      vertex 9.625 16.671 10
      vertex 9.625 16.671 30
      vertex 12.8808 14.3055 10
    endloop
  endfacet
  facet normal 0.587785 0.809017 0
    outer loop
      vertex 12.8808 14.3055 10
      vertex 9.625 16.671 30
      vertex 12.8808 14.3055 30
    endloop
  endfacet
  facet normal 0.406737 0.913545 0
    outer loop
      vertex 5.94858 18.3078 10
      vertex 5.94858 18.3078 30
      vertex 9.625 16.671 10
    endloop
  endfacet
  facet normal 0.406737 0.913545 0
    outer loop
      vertex 9.625 16.671 10
      vertex 5.94858 18.3078 30
      vertex 9.625 16.671 30
    endloop
  endfacet
  facet normal 0.207912 0.978148 0
    outer loop
      vertex 2.01217 19.1445 10
      vertex 2.01217 19.1445 30
      vertex 5.94858 18.3078 10
    endloop
  endfacet
  facet normal 0.207912 0.978148 0
    outer loop
      vertex 5.94858 18.3078 10
      vertex 2.01217 19.1445 30
      vertex 5.94858 18.3078 30
    endloop
  endfacet
  facet normal 0 1 0
    outer loop
      vertex -2.01217 19.1445 10
      vertex -2.01217 19.1445 30
      vertex 2.01217 19.1445 10
    endloop
  endfacet
  facet normal 0 1 0
    outer loop
      vertex 2.01217 19.1445 10
      vertex -2.01217 19.1445 30
      vertex 2.01217 19.1445 30
    endloop
  endfacet
  facet normal -0.207912 0.978148 0
    outer loop
      vertex -5.94858 18.3078 10
      vertex -5.94858 18.3078 30
      vertex -2.01217 19.1445 10
    endloop
  endfacet
  facet normal -0.207912 0.978148 0
    outer loop
      vertex -2.01217 19.1445 10
      vertex -5.94858 18.3078 30
      vertex -2.01217 19.1445 30
    endloop
  endfacet
  facet normal -0.406737 0.913545 0
    outer loop
      vertex -9.625 16.671 10
      vertex -9.625 16.671 30
      vertex -5.94858 18.3078 10
    endloop
  endfacet
  facet normal -0.406737 0.913545 0
    outer loop
      vertex -5.94858 18.3078 10
      vertex -9.625 16.671 30
      vertex -5.94858 18.3078 30
    endloop
  endfacet
  facet normal -0.587785 0.809017 0
    outer loop
      vertex -12.8808 14.3055 10
      vertex -12.8808 14.3055 30
      vertex -9.625 16.671 10
    endloop
  endfacet
  facet normal -0.587785 0.809017 0
    outer loop
      vertex -9.625 16.671 10
      vertex -12.8808 14.3055 30
      vertex -9.625 16.671 30
    endloop
  endfacet
  facet normal -0.743145 0.669131 0
    outer loop
      vertex -15.5736 11.3149 10
      vertex -15.5736 11.3149 30
      vertex -12.8808 14.3055 10
    endloop
  endfacet
  facet normal -0.743145 0.669131 0
    outer loop
      vertex -12.8808 14.3055 10
      vertex -15.5736 11.3149 30
      vertex -12.8808 14.3055 30
    endloop
  endfacet
  facet normal -0.866025 0.5 0
    outer loop
      vertex -17.5858 7.82968 10
      vertex -17.5858 7.82968 30
      vertex -15.5736 11.3149 10
    endloop
  endfacet
  facet normal -0.866025 0.5 0
    outer loop
      vertex -15.5736 11.3149 10
      vertex -17.5858 7.82968 30
      vertex -15.5736 11.3149 30
    endloop
  endfacet
  facet normal -0.951057 0.309017 0
    outer loop
      vertex -18.8293 4.0023 10
      vertex -18.8293 4.0023 30
      vertex -17.5858 7.82968 10
    endloop
  endfacet
  facet normal -0.951057 0.309017 0
    outer loop
      vertex -17.5858 7.82968 10
      vertex -18.8293 4.0023 30
      vertex -17.5858 7.82968 30
    endloop
  endfacet
  facet normal 0.965926 -0.258819 0
    outer loop
      vertex -1.29904 0.75 10
      vertex -1.29904 0.75 12
      vertex -1.5 0 12
    endloop
  endfacet
  facet normal 0.965926 -0.258819 0
    outer loop
      vertex -1.5 0 10
      vertex -1.29904 0.75 10
      vertex -1.5 0 12
    endloop
  endfacet
  facet normal 0.965926 0.258819 0
    outer loop
      vertex -1.5 0 12
      vertex -1.29904 -0.75 12
      vertex -1.29904 -0.75 10
    endloop
  endfacet
  facet normal 0.965926 0.258819 0
    outer loop
      vertex -1.5 0 10
      vertex -1.5 0 12
      vertex -1.29904 -0.75 10
    endloop
  endfacet
  facet normal 0.707107 -0.707107 0
    outer loop
      vertex -0.75 1.29904 10
      vertex -0.75 1.29904 12
      vertex -1.29904 0.75 12
    endloop
  endfacet
  facet normal 0.707107 -0.707107 0
    outer loop
      vertex -1.29904 0.75 10
      vertex -0.75 1.29904 10
      vertex -1.29904 0.75 12
    endloop
  endfacet
  facet normal 0.258819 -0.965926 0
    outer loop
      vertex 0 1.5 10
      vertex 0 1.5 12
      vertex -0.75 1.29904 12
    endloop
  endfacet
  facet normal 0.258819 -0.965926 0
    outer loop
      vertex -0.75 1.29904 10
      vertex 0 1.5 10
      vertex -0.75 1.29904 12
    endloop
  endfacet
  facet normal -0.258819 -0.965926 0
    outer loop
      vertex 0.75 1.29904 10
      vertex 0.75 1.29904 12
      vertex 0 1.5 12
    endloop
  endfacet
  facet normal -0.258819 -0.965926 0
    outer loop
      vertex 0 1.5 10
      vertex 0.75 1.29904 10
      vertex 0 1.5 12
    endloop
  endfacet
  facet normal -0.707107 -0.707107 0
    outer loop
      vertex 1.29904 0.75 10
      vertex 1.29904 0.75 12
      vertex 0.75 1.29904 12
    endloop
  endfacet
  facet normal -0.707107 -0.707107 0
    outer loop
      vertex 0.75 1.29904 10
      vertex 1.29904 0.75 10
      vertex 0.75 1.29904 12
    endloop
  endfacet
  facet normal -0.965926 -0.258819 0
    outer loop
      vertex 1.5 0 12
      vertex 1.29904 0.75 12
      vertex 1.5 0 10
    endloop
  endfacet
  facet normal -0.965926 -0.258819 0
    outer loop
      vertex 1.5 0 10
      vertex 1.29904 0.75 12
      vertex 1.29904 0.75 10
    endloop
  endfacet
  facet normal -0.965926 0.258819 0
    outer loop
      vertex 1.5 0 12
      vertex 1.5 0 10
      vertex 1.29904 -0.75 12
    endloop
  endfacet
  facet normal -0.965926 0.258819 0
    outer loop
      vertex 1.29904 -0.75 12
      vertex 1.5 0 10
      vertex 1.29904 -0.75 10
    endloop
  endfacet
  facet normal -0.707107 0.707107 0
    outer loop
      vertex 1.29904 -0.75 12
      vertex 1.29904 -0.75 10
      vertex 0.75 -1.29904 12
    endloop
  endfacet
  facet normal -0.707107 0.707107 0
    outer loop
      vertex 0.75 -1.29904 12
      vertex 1.29904 -0.75 10
      vertex 0.75 -1.29904 10
    endloop
  endfacet
  facet normal -0.258819 0.965926 0
    outer loop
      vertex 0.75 -1.29904 12
      vertex 0.75 -1.29904 10
      vertex 0 -1.5 12
    endloop
  endfacet
  facet normal -0.258819 0.965926 0
    outer loop
      vertex 0 -1.5 12
      vertex 0.75 -1.29904 10
      vertex 0 -1.5 10
    endloop
  endfacet
  facet normal 0.258819 0.965926 0
    outer loop
      vertex 0 -1.5 12
      vertex 0 -1.5 10
      vertex -0.75 -1.29904 12
    endloop
  endfacet
  facet normal 0.258819 0.965926 0
    outer loop
      vertex -0.75 -1.29904 12
      vertex 0 -1.5 10
      vertex -0.75 -1.29904 10
    endloop
  endfacet
  facet normal 0.707107 0.707107 0
    outer loop
      vertex -0.75 -1.29904 12
      vertex -0.75 -1.29904 10
      vertex -1.29904 -0.75 12
    endloop
  endfacet
  facet normal 0.707107 0.707107 0
    outer loop
      vertex -1.29904 -0.75 12
      vertex -0.75 -1.29904 10
      vertex -1.29904 -0.75 10
    endloop
  endfacet
  facet normal 0 0 1
    outer loop
      vertex -18.8293 4.0023 30
      vertex -19.25 0 30
      vertex -18.8293 -4.0023 30
    endloop
  endfacet
  facet normal 0 0 1
    outer loop
      vertex -15.5736 -11.3149 30
      vertex -18.8293 4.0023 30
      vertex -17.5858 -7.82968 30
    endloop
  endfacet
  facet normal 0 0 1
    outer loop
      vertex -17.5858 -7.82968 30
      vertex -18.8293 4.0023 30
      vertex -18.8293 -4.0023 30
    endloop
  endfacet
  facet normal 0 0 1
    outer loop
      vertex -16.873 -3.58648 30
      vertex -18.8293 4.0023 30
      vertex -15.5736 -11.3149 30
    endloop
  endfacet
  facet normal 0 0 1
    outer loop
      vertex -16.873 3.58648 30
      vertex -15.7587 7.01621 30
      vertex -18.8293 4.0023 30
    endloop
  endfacet
  facet normal 0 0 1
    outer loop
      vertex -8.625 -14.9389 30
      vertex -11.5425 -12.8192 30
      vertex -9.625 -16.671 30
    endloop
  endfacet
  facet normal 0 0 1
    outer loop
      vertex 15.7587 7.01621 30
      vertex 16.873 3.58648 30
      vertex 18.8293 4.0023 30
    endloop
  endfacet
  facet normal 0 0 1
    outer loop
      vertex 13.9555 10.1393 30
      vertex 15.7587 7.01621 30
      vertex 17.5858 7.82968 30
    endloop
  endfacet
  facet normal 0 0 1
    outer loop
      vertex 11.5425 12.8192 30
      vertex 13.9555 10.1393 30
      vertex 15.5736 11.3149 30
    endloop
  endfacet
  facet normal 0 0 1
    outer loop
      vertex 8.625 14.9389 30
      vertex 11.5425 12.8192 30
      vertex 12.8808 14.3055 30
    endloop
  endfacet
  facet normal 0 0 1
    outer loop
      vertex 5.33054 16.4057 30
      vertex 8.625 14.9389 30
      vertex 9.625 16.671 30
    endloop
  endfacet
  facet normal 0 0 1
    outer loop
      vertex -11.5425 12.8192 30
      vertex -8.625 14.9389 30
      vertex -5.94858 18.3078 30
    endloop
  endfacet
  facet normal 0 0 1
    outer loop
      vertex -5.33054 16.4057 30
      vertex -1.80312 17.1555 30
      vertex -2.01217 19.1445 30
    endloop
  endfacet
  facet normal 0 0 1
    outer loop
      vertex -12.8808 14.3055 30
      vertex -18.8293 4.0023 30
      vertex -9.625 16.671 30
    endloop
  endfacet
  facet normal 0 0 1
    outer loop
      vertex -15.5736 11.3149 30
      vertex -18.8293 4.0023 30
      vertex -12.8808 14.3055 30
    endloop
  endfacet
  facet normal 0 0 1
    outer loop
      vertex -17.5858 7.82968 30
      vertex -18.8293 4.0023 30
      vertex -15.5736 11.3149 30
    endloop
  endfacet
  facet normal 0 0 1
    outer loop
      vertex -15.7587 -7.01621 30
      vertex -16.873 -3.58648 30
      vertex -15.5736 -11.3149 30
    endloop
  endfacet
  facet normal 0 0 1
    outer loop
      vertex 15.7587 -7.01621 30
      vertex 13.9555 -10.1393 30
      vertex 17.5858 -7.82968 30
    endloop
  endfacet
  facet normal 0 0 1
    outer loop
      vertex -1.80312 17.1555 30
      vertex 1.80312 17.1555 30
      vertex 2.01217 19.1445 30
    endloop
  endfacet
  facet normal 0 0 1
    outer loop
      vertex 16.873 3.58648 30
      vertex 17.25 0 30
      vertex 19.25 0 30
    endloop
  endfacet
  facet normal 0 0 1
    outer loop
      vertex -9.625 16.671 30
      vertex -18.8293 4.0023 30
      vertex -13.9555 10.1393 30
    endloop
  endfacet
  facet normal 0 0 1
    outer loop
      vertex -9.625 16.671 30
      vertex -11.5425 12.8192 30
      vertex -5.94858 18.3078 30
    endloop
  endfacet
  facet normal 0 0 1
    outer loop
      vertex -9.625 16.671 30
      vertex -13.9555 10.1393 30
      vertex -11.5425 12.8192 30
    endloop
  endfacet
  facet normal 0 0 1
    outer loop
      vertex -5.94858 18.3078 30
      vertex -8.625 14.9389 30
      vertex -2.01217 19.1445 30
    endloop
  endfacet
  facet normal 0 0 1
    outer loop
      vertex -8.625 14.9389 30
      vertex -5.33054 16.4057 30
      vertex -2.01217 19.1445 30
    endloop
  endfacet
  facet normal 0 0 1
    outer loop
      vertex -2.01217 19.1445 30
      vertex -1.80312 17.1555 30
      vertex 2.01217 19.1445 30
    endloop
  endfacet
  facet normal 0 0 1
    outer loop
      vertex -15.7587 7.01621 30
      vertex -13.9555 10.1393 30
      vertex -18.8293 4.0023 30
    endloop
  endfacet
  facet normal 0 0 1
    outer loop
      vertex 2.01217 19.1445 30
      vertex 1.80312 17.1555 30
      vertex 5.94858 18.3078 30
    endloop
  endfacet
  facet normal 0 0 1
    outer loop
      vertex 5.94858 18.3078 30
      vertex 5.33054 16.4057 30
      vertex 9.625 16.671 30
    endloop
  endfacet
  facet normal 0 0 1
    outer loop
      vertex 9.625 16.671 30
      vertex 8.625 14.9389 30
      vertex 12.8808 14.3055 30
    endloop
  endfacet
  facet normal 0 0 1
    outer loop
      vertex 12.8808 14.3055 30
      vertex 11.5425 12.8192 30
      vertex 15.5736 11.3149 30
    endloop
  endfacet
  facet normal 0 0 1
    outer loop
      vertex 15.5736 11.3149 30
      vertex 13.9555 10.1393 30
      vertex 17.5858 7.82968 30
    endloop
  endfacet
  facet normal 0 0 1
    outer loop
      vertex 17.5858 7.82968 30
      vertex 15.7587 7.01621 30
      vertex 18.8293 4.0023 30
    endloop
  endfacet
  facet normal 0 0 1
    outer loop
      vertex 18.8293 4.0023 30
      vertex 16.873 3.58648 30
      vertex 19.25 0 30
    endloop
  endfacet
  facet normal 0 0 1
    outer loop
      vertex 19.25 0 30
      vertex 17.25 0 30
      vertex 18.8293 -4.0023 30
    endloop
  endfacet
  facet normal 0 0 1
    outer loop
      vertex 18.8293 -4.0023 30
      vertex 16.873 -3.58648 30
      vertex 17.5858 -7.82968 30
    endloop
  endfacet
  facet normal 0 0 1
    outer loop
      vertex 1.80312 17.1555 30
      vertex 5.33054 16.4057 30
      vertex 5.94858 18.3078 30
    endloop
  endfacet
  facet normal 0 0 1
    outer loop
      vertex 16.873 -3.58648 30
      vertex 15.7587 -7.01621 30
      vertex 17.5858 -7.82968 30
    endloop
  endfacet
  facet normal 0 0 1
    outer loop
      vertex 17.5858 -7.82968 30
      vertex 13.9555 -10.1393 30
      vertex 15.5736 -11.3149 30
    endloop
  endfacet
  facet normal 0 0 1
    outer loop
      vertex 15.5736 -11.3149 30
      vertex 11.5425 -12.8192 30
      vertex 12.8808 -14.3055 30
    endloop
  endfacet
  facet normal 0 0 1
    outer loop
      vertex 12.8808 -14.3055 30
      vertex 8.625 -14.9389 30
      vertex 9.625 -16.671 30
    endloop
  endfacet
  facet normal 0 0 1
    outer loop
      vertex 9.625 -16.671 30
      vertex 5.33054 -16.4057 30
      vertex 5.94858 -18.3078 30
    endloop
  endfacet
  facet normal 0 0 1
    outer loop
      vertex 5.94858 -18.3078 30
      vertex 1.80312 -17.1555 30
      vertex 2.01217 -19.1445 30
    endloop
  endfacet
  facet normal 0 0 1
    outer loop
      vertex 2.01217 -19.1445 30
      vertex -1.80312 -17.1555 30
      vertex -2.01217 -19.1445 30
    endloop
  endfacet
  facet normal 0 0 1
    outer loop
      vertex -2.01217 -19.1445 30
      vertex -5.33054 -16.4057 30
      vertex -5.94858 -18.3078 30
    endloop
  endfacet
  facet normal 0 0 1
    outer loop
      vertex 17.25 0 30
      vertex 16.873 -3.58648 30
      vertex 18.8293 -4.0023 30
    endloop
  endfacet
  facet normal 0 0 1
    outer loop
      vertex -5.94858 -18.3078 30
      vertex -8.625 -14.9389 30
      vertex -9.625 -16.671 30
    endloop
  endfacet
  facet normal 0 0 1
    outer loop
      vertex -9.625 -16.671 30
      vertex -11.5425 -12.8192 30
      vertex -12.8808 -14.3055 30
    endloop
  endfacet
  facet normal 0 0 1
    outer loop
      vertex -11.5425 -12.8192 30
      vertex -13.9555 -10.1393 30
      vertex -12.8808 -14.3055 30
    endloop
  endfacet
  facet normal 0 0 1
    outer loop
      vertex -12.8808 -14.3055 30
      vertex -15.7587 -7.01621 30
      vertex -15.5736 -11.3149 30
    endloop
  endfacet
  facet normal 0 0 1
    outer loop
      vertex -16.873 -3.58648 30
      vertex -17.25 0 30
      vertex -18.8293 4.0023 30
    endloop
  endfacet
  facet normal 0 0 1
    outer loop
      vertex 13.9555 -10.1393 30
      vertex 11.5425 -12.8192 30
      vertex 15.5736 -11.3149 30
    endloop
  endfacet
  facet normal 0 0 1
    outer loop
      vertex 11.5425 -12.8192 30
      vertex 8.625 -14.9389 30
      vertex 12.8808 -14.3055 30
    endloop
  endfacet
  facet normal 0 0 1
    outer loop
      vertex 8.625 -14.9389 30
      vertex 5.33054 -16.4057 30
      vertex 9.625 -16.671 30
    endloop
  endfacet
  facet normal 0 0 1
    outer loop
      vertex 5.33054 -16.4057 30
      vertex 1.80312 -17.1555 30
      vertex 5.94858 -18.3078 30
    endloop
  endfacet
  facet normal 0 0 1
    outer loop
      vertex 1.80312 -17.1555 30
      vertex -1.80312 -17.1555 30
      vertex 2.01217 -19.1445 30
    endloop
  endfacet
  facet normal 0 0 1
    outer loop
      vertex -1.80312 -17.1555 30
      vertex -5.33054 -16.4057 30
      vertex -2.01217 -19.1445 30
    endloop
  endfacet
  facet normal 0 0 1
    outer loop
      vertex -5.33054 -16.4057 30
      vertex -8.625 -14.9389 30
      vertex -5.94858 -18.3078 30
    endloop
  endfacet
  facet normal 0 0 1
    outer loop
      vertex -13.9555 -10.1393 30
      vertex -15.7587 -7.01621 30
      vertex -12.8808 -14.3055 30
    endloop
  endfacet
  facet normal 0 0 1
    outer loop
      vertex -17.25 0 30
      vertex -16.873 3.58648 30
      vertex -18.8293 4.0023 30
    endloop
  endfacet
  facet normal 0 0 1
    outer loop
      vertex -16.873 -3.58648 12
      vertex -15.7587 -7.01621 12
      vertex -13.9555 -10.1393 12
    endloop
  endfacet
  facet normal 0 0 1
    outer loop
      vertex -8.625 -14.9389 12
      vertex -16.873 -3.58648 12
      vertex -11.5425 -12.8192 12
    endloop
  endfacet
  facet normal 0 0 1
    outer loop
      vertex -11.5425 -12.8192 12
      vertex -16.873 -3.58648 12
      vertex -13.9555 -10.1393 12
    endloop
  endfacet
  facet normal 0 0 1
    outer loop
      vertex -5.33054 -16.4057 12
      vertex -16.873 -3.58648 12
      vertex -8.625 -14.9389 12
    endloop
  endfacet
  facet normal 0 0 1
    outer loop
      vertex -1.80312 -17.1555 12
      vertex -16.873 -3.58648 12
      vertex -5.33054 -16.4057 12
    endloop
  endfacet
  facet normal 0 0 1
    outer loop
      vertex 1.80312 -17.1555 12
      vertex -16.873 -3.58648 12
      vertex -1.80312 -17.1555 12
    endloop
  endfacet
  facet normal 0 0 1
    outer loop
      vertex 5.33054 -16.4057 12
      vertex -16.873 -3.58648 12
      vertex 1.80312 -17.1555 12
    endloop
  endfacet
  facet normal 0 0 1
    outer loop
      vertex 8.625 -14.9389 12
      vertex -16.873 -3.58648 12
      vertex 5.33054 -16.4057 12
    endloop
  endfacet
  facet normal 0 0 1
    outer loop
      vertex 11.5425 -12.8192 12
      vertex -16.873 -3.58648 12
      vertex 8.625 -14.9389 12
    endloop
  endfacet
  facet normal 0 0 1
    outer loop
      vertex 13.9555 -10.1393 12
      vertex -16.873 -3.58648 12
      vertex 11.5425 -12.8192 12
    endloop
  endfacet
  facet normal 0 0 1
    outer loop
      vertex 15.7587 -7.01621 12
      vertex -16.873 -3.58648 12
      vertex 13.9555 -10.1393 12
    endloop
  endfacet
  facet normal 0 0 1
    outer loop
      vertex 16.873 -3.58648 12
      vertex -16.873 -3.58648 12
      vertex 15.7587 -7.01621 12
    endloop
  endfacet
  facet normal 0 0 1
    outer loop
      vertex 17.25 0 12
      vertex -16.873 -3.58648 12
      vertex 16.873 -3.58648 12
    endloop
  endfacet
  facet normal 0 0 1
    outer loop
      vertex 0 -1.5 12
      vertex -16.873 -3.58648 12
      vertex 17.25 0 12
    endloop
  endfacet
  facet normal 0 0 1
    outer loop
      vertex 13.9555 10.1393 12
      vertex -16.873 -3.58648 12
      vertex 15.7587 7.01621 12
    endloop
  endfacet
  facet normal 0 0 1
    outer loop
      vertex 11.5425 12.8192 12
      vertex -16.873 -3.58648 12
      vertex 13.9555 10.1393 12
    endloop
  endfacet
  facet normal 0 0 1
    outer loop
      vertex 8.625 14.9389 12
      vertex -16.873 -3.58648 12
      vertex 11.5425 12.8192 12
    endloop
  endfacet
  facet normal 0 0 1
    outer loop
      vertex 5.33054 16.4057 12
      vertex -16.873 -3.58648 12
      vertex 8.625 14.9389 12
    endloop
  endfacet
  facet normal 0 0 1
    outer loop
      vertex 1.80312 17.1555 12
      vertex -16.873 -3.58648 12
      vertex 5.33054 16.4057 12
    endloop
  endfacet
  facet normal 0 0 1
    outer loop
      vertex -1.80312 17.1555 12
      vertex -16.873 -3.58648 12
      vertex 1.80312 17.1555 12
    endloop
  endfacet
  facet normal 0 0 1
    outer loop
      vertex -5.33054 16.4057 12
      vertex -16.873 -3.58648 12
      vertex -1.80312 17.1555 12
    endloop
  endfacet
  facet normal 0 0 1
    outer loop
      vertex -8.625 14.9389 12
      vertex -16.873 -3.58648 12
      vertex -5.33054 16.4057 12
    endloop
  endfacet
  facet normal 0 0 1
    outer loop
      vertex -11.5425 12.8192 12
      vertex -16.873 -3.58648 12
      vertex -8.625 14.9389 12
    endloop
  endfacet
  facet normal 0 0 1
    outer loop
      vertex -13.9555 10.1393 12
      vertex -16.873 -3.58648 12
      vertex -11.5425 12.8192 12
    endloop
  endfacet
  facet normal 0 0 1
    outer loop
      vertex -15.7587 7.01621 12
      vertex -16.873 -3.58648 12
      vertex -13.9555 10.1393 12
    endloop
  endfacet
  facet normal 0 0 1
    outer loop
      vertex -16.873 3.58648 12
      vertex -16.873 -3.58648 12
      vertex -15.7587 7.01621 12
    endloop
  endfacet
  facet normal 0 0 1
    outer loop
      vertex -17.25 0 12
      vertex -16.873 -3.58648 12
      vertex -16.873 3.58648 12
    endloop
  endfacet
  facet normal 0 0 1
    outer loop
      vertex 0 -1.5 12
      vertex -0.75 -1.29904 12
      vertex -16.873 -3.58648 12
    endloop
  endfacet
  facet normal 0 0 1
    outer loop
      vertex -1.29904 0.75 12
      vertex -16.873 -3.58648 12
      vertex -1.5 0 12
    endloop
  endfacet
  facet normal 0 0 1
    outer loop
      vertex -0.75 1.29904 12
      vertex -16.873 -3.58648 12
      vertex -1.29904 0.75 12
    endloop
  endfacet
  facet normal 0 0 1
    outer loop
      vertex 15.7587 7.01621 12
      vertex -16.873 -3.58648 12
      vertex -0.75 1.29904 12
    endloop
  endfacet
  facet normal 0 0 1
    outer loop
      vertex 0.75 1.29904 12
      vertex 1.29904 0.75 12
      vertex 15.7587 7.01621 12
    endloop
  endfacet
  facet normal 0 0 1
    outer loop
      vertex 15.7587 7.01621 12
      vertex -0.75 1.29904 12
      vertex 0 1.5 12
    endloop
  endfacet
  facet normal 0 0 1
    outer loop
      vertex 1.29904 0.75 12
      vertex 1.5 0 12
      vertex 16.873 3.58648 12
    endloop
  endfacet
  facet normal 0 0 1
    outer loop
      vertex 15.7587 7.01621 12
      vertex 1.29904 0.75 12
      vertex 16.873 3.58648 12
    endloop
  endfacet
  facet normal 0 0 1
    outer loop
      vertex 16.873 3.58648 12
      vertex 1.5 0 12
      vertex 17.25 0 12
    endloop
  endfacet
  facet normal 0 0 1
    outer loop
      vertex 0 1.5 12
      vertex 0.75 1.29904 12
      vertex 15.7587 7.01621 12
    endloop
  endfacet
  facet normal 0 0 1
    outer loop
      vertex 1.5 0 12
      vertex 1.29904 -0.75 12
      vertex 17.25 0 12
    endloop
  endfacet
  facet normal 0 0 1
    outer loop
      vertex 1.29904 -0.75 12
      vertex 0.75 -1.29904 12
      vertex 17.25 0 12
    endloop
  endfacet
  facet normal 0 0 1
    outer loop
      vertex 0.75 -1.29904 12
      vertex 0 -1.5 12
      vertex 17.25 0 12
    endloop
  endfacet
  facet normal 0 0 1
    outer loop
      vertex -0.75 -1.29904 12
      vertex -1.29904 -0.75 12
      vertex -16.873 -3.58648 12
    endloop
  endfacet
  facet normal 0 0 1
    outer loop
      vertex -1.29904 -0.75 12
      vertex -1.5 0 12
      vertex -16.873 -3.58648 12
    endloop
  endfacet
  facet normal 0.994522 0.104528 0
    outer loop
      vertex -17.25 0 30
      vertex -16.873 -3.58648 30
      vertex -16.873 -3.58648 12
    endloop
  endfacet
  facet normal 0.994522 0.104528 0
    outer loop
      vertex -17.25 0 12
      vertex -17.25 0 30
      vertex -16.873 -3.58648 12
    endloop
  endfacet
  facet normal 0.951057 0.309017 0
    outer loop
      vertex -16.873 -3.58648 30
      vertex -15.7587 -7.01621 30
      vertex -15.7587 -7.01621 12
    endloop
  endfacet
  facet normal 0.951057 0.309017 0
    outer loop
      vertex -16.873 -3.58648 12
      vertex -16.873 -3.58648 30
      vertex -15.7587 -7.01621 12
    endloop
  endfacet
  facet normal 0.866025 0.5 0
    outer loop
      vertex -15.7587 -7.01621 30
      vertex -13.9555 -10.1393 30
      vertex -13.9555 -10.1393 12
    endloop
  endfacet
  facet normal 0.866025 0.5 0
    outer loop
      vertex -15.7587 -7.01621 12
      vertex -15.7587 -7.01621 30
      vertex -13.9555 -10.1393 12
    endloop
  endfacet
  facet normal 0.743145 0.669131 0
    outer loop
      vertex -13.9555 -10.1393 30
      vertex -11.5425 -12.8192 30
      vertex -11.5425 -12.8192 12
    endloop
  endfacet
  facet normal 0.743145 0.669131 0
    outer loop
      vertex -13.9555 -10.1393 12
      vertex -13.9555 -10.1393 30
      vertex -11.5425 -12.8192 12
    endloop
  endfacet
  facet normal 0.587785 0.809017 0
    outer loop
      vertex -8.625 -14.9389 30
      vertex -8.625 -14.9389 12
      vertex -11.5425 -12.8192 30
    endloop
  endfacet
  facet normal 0.587785 0.809017 0
    outer loop
      vertex -11.5425 -12.8192 30
      vertex -8.625 -14.9389 12
      vertex -11.5425 -12.8192 12
    endloop
  endfacet
  facet normal 0.406737 0.913545 0
    outer loop
      vertex -5.33054 -16.4057 30
      vertex -5.33054 -16.4057 12
      vertex -8.625 -14.9389 30
    endloop
  endfacet
  facet normal 0.406737 0.913545 0
    outer loop
      vertex -8.625 -14.9389 30
      vertex -5.33054 -16.4057 12
      vertex -8.625 -14.9389 12
    endloop
  endfacet
  facet normal 0.207912 0.978148 0
    outer loop
      vertex -1.80312 -17.1555 30
      vertex -1.80312 -17.1555 12
      vertex -5.33054 -16.4057 30
    endloop
  endfacet
  facet normal 0.207912 0.978148 0
    outer loop
      vertex -5.33054 -16.4057 30
      vertex -1.80312 -17.1555 12
      vertex -5.33054 -16.4057 12
    endloop
  endfacet
  facet normal 0 1 0
    outer loop
      vertex 1.80312 -17.1555 30
      vertex 1.80312 -17.1555 12
      vertex -1.80312 -17.1555 30
    endloop
  endfacet
  facet normal 0 1 0
    outer loop
      vertex -1.80312 -17.1555 30
      vertex 1.80312 -17.1555 12
      vertex -1.80312 -17.1555 12
    endloop
  endfacet
  facet normal -0.207912 0.978148 0
    outer loop
      vertex 5.33054 -16.4057 30
      vertex 5.33054 -16.4057 12
      vertex 1.80312 -17.1555 30
    endloop
  endfacet
  facet normal -0.207912 0.978148 0
    outer loop
      vertex 1.80312 -17.1555 30
      vertex 5.33054 -16.4057 12
      vertex 1.80312 -17.1555 12
    endloop
  endfacet
  facet normal -0.406737 0.913545 0
    outer loop
      vertex 8.625 -14.9389 30
      vertex 8.625 -14.9389 12
      vertex 5.33054 -16.4057 30
    endloop
  endfacet
  facet normal -0.406737 0.913545 0
    outer loop
      vertex 5.33054 -16.4057 30
      vertex 8.625 -14.9389 12
      vertex 5.33054 -16.4057 12
    endloop
  endfacet
  facet normal -0.587785 0.809017 0
    outer loop
      vertex 11.5425 -12.8192 30
      vertex 11.5425 -12.8192 12
      vertex 8.625 -14.9389 30
    endloop
  endfacet
  facet normal -0.587785 0.809017 0
    outer loop
      vertex 8.625 -14.9389 30
      vertex 11.5425 -12.8192 12
      vertex 8.625 -14.9389 12
    endloop
  endfacet
  facet normal -0.743145 0.669131 0
    outer loop
      vertex 13.9555 -10.1393 30
      vertex 13.9555 -10.1393 12
      vertex 11.5425 -12.8192 30
    endloop
  endfacet
  facet normal -0.743145 0.669131 0
    outer loop
      vertex 11.5425 -12.8192 30
      vertex 13.9555 -10.1393 12
      vertex 11.5425 -12.8192 12
    endloop
  endfacet
  facet normal -0.866025 0.5 0
    outer loop
      vertex 15.7587 -7.01621 30
      vertex 15.7587 -7.01621 12
      vertex 13.9555 -10.1393 30
    endloop
  endfacet
  facet normal -0.866025 0.5 0
    outer loop
      vertex 13.9555 -10.1393 30
      vertex 15.7587 -7.01621 12
      vertex 13.9555 -10.1393 12
    endloop
  endfacet
  facet normal -0.951057 0.309017 0
    outer loop
      vertex 16.873 -3.58648 30
      vertex 16.873 -3.58648 12
      vertex 15.7587 -7.01621 30
    endloop
  endfacet
  facet normal -0.951057 0.309017 0
    outer loop
      vertex 15.7587 -7.01621 30
      vertex 16.873 -3.58648 12
      vertex 15.7587 -7.01621 12
    endloop
  endfacet
  facet normal -0.994522 0.104528 0
    outer loop
      vertex 17.25 0 30
      vertex 17.25 0 12
      vertex 16.873 -3.58648 30
    endloop
  endfacet
  facet normal -0.994522 0.104528 0
    outer loop
      vertex 16.873 -3.58648 30
      vertex 17.25 0 12
      vertex 16.873 -3.58648 12
    endloop
  endfacet
  facet normal -0.994522 -0.104528 0
    outer loop
      vertex 17.25 0 30
      vertex 16.873 3.58648 30
      vertex 17.25 0 12
    endloop
  endfacet
  facet normal -0.994522 -0.104528 0
    outer loop
      vertex 17.25 0 12
      vertex 16.873 3.58648 30
      vertex 16.873 3.58648 12
    endloop
  endfacet
  facet normal -0.951057 -0.309017 0
    outer loop
      vertex 16.873 3.58648 30
      vertex 15.7587 7.01621 30
      vertex 16.873 3.58648 12
    endloop
  endfacet
  facet normal -0.951057 -0.309017 0
    outer loop
      vertex 16.873 3.58648 12
      vertex 15.7587 7.01621 30
      vertex 15.7587 7.01621 12
    endloop
  endfacet
  facet normal -0.866025 -0.5 0
    outer loop
      vertex 15.7587 7.01621 30
      vertex 13.9555 10.1393 30
      vertex 15.7587 7.01621 12
    endloop
  endfacet
  facet normal -0.866025 -0.5 0
    outer loop
      vertex 15.7587 7.01621 12
      vertex 13.9555 10.1393 30
      vertex 13.9555 10.1393 12
    endloop
  endfacet
  facet normal -0.743145 -0.669131 0
    outer loop
      vertex 13.9555 10.1393 30
      vertex 11.5425 12.8192 30
      vertex 13.9555 10.1393 12
    endloop
  endfacet
  facet normal -0.743145 -0.669131 0
    outer loop
      vertex 13.9555 10.1393 12
      vertex 11.5425 12.8192 30
      vertex 11.5425 12.8192 12
    endloop
  endfacet
  facet normal -0.587785 -0.809017 0
    outer loop
      vertex 11.5425 12.8192 12
      vertex 11.5425 12.8192 30
      vertex 8.625 14.9389 30
    endloop
  endfacet
  facet normal -0.587785 -0.809017 0
    outer loop
      vertex 8.625 14.9389 12
      vertex 11.5425 12.8192 12
      vertex 8.625 14.9389 30
    endloop
  endfacet
  facet normal -0.406737 -0.913545 0
    outer loop
      vertex 8.625 14.9389 12
      vertex 8.625 14.9389 30
      vertex 5.33054 16.4057 30
    endloop
  endfacet
  facet normal -0.406737 -0.913545 0
    outer loop
      vertex 5.33054 16.4057 12
      vertex 8.625 14.9389 12
      vertex 5.33054 16.4057 30
    endloop
  endfacet
  facet normal -0.207912 -0.978148 0
    outer loop
      vertex 5.33054 16.4057 12
      vertex 5.33054 16.4057 30
      vertex 1.80312 17.1555 30
    endloop
  endfacet
  facet normal -0.207912 -0.978148 0
    outer loop
      vertex 1.80312 17.1555 12
      vertex 5.33054 16.4057 12
      vertex 1.80312 17.1555 30
    endloop
  endfacet
  facet normal 0 -1 0
    outer loop
      vertex 1.80312 17.1555 12
      vertex 1.80312 17.1555 30
      vertex -1.80312 17.1555 30
    endloop
  endfacet
  facet normal 0 -1 0
    outer loop
      vertex -1.80312 17.1555 12
      vertex 1.80312 17.1555 12
      vertex -1.80312 17.1555 30
    endloop
  endfacet
  facet normal 0.207912 -0.978148 0
    outer loop
      vertex -1.80312 17.1555 12
      vertex -1.80312 17.1555 30
      vertex -5.33054 16.4057 30
    endloop
  endfacet
  facet normal 0.207912 -0.978148 0
    outer loop
      vertex -5.33054 16.4057 12
      vertex -1.80312 17.1555 12
      vertex -5.33054 16.4057 30
    endloop
  endfacet
  facet normal 0.406737 -0.913545 0
    outer loop
      vertex -5.33054 16.4057 12
      vertex -5.33054 16.4057 30
      vertex -8.625 14.9389 30
    endloop
  endfacet
  facet normal 0.406737 -0.913545 0
    outer loop
      vertex -8.625 14.9389 12
      vertex -5.33054 16.4057 12
      vertex -8.625 14.9389 30
    endloop
  endfacet
  facet normal 0.587785 -0.809017 0
    outer loop
      vertex -8.625 14.9389 12
      vertex -8.625 14.9389 30
      vertex -11.5425 12.8192 30
    endloop
  endfacet
  facet normal 0.587785 -0.809017 0
    outer loop
      vertex -11.5425 12.8192 12
      vertex -8.625 14.9389 12
      vertex -11.5425 12.8192 30
    endloop
  endfacet
  facet normal 0.743145 -0.669131 0
    outer loop
      vertex -11.5425 12.8192 12
      vertex -11.5425 12.8192 30
      vertex -13.9555 10.1393 30
    endloop
  endfacet
  facet normal 0.743145 -0.669131 0
    outer loop
      vertex -13.9555 10.1393 12
      vertex -11.5425 12.8192 12
      vertex -13.9555 10.1393 30
    endloop
  endfacet
  facet normal 0.866025 -0.5 0
    outer loop
      vertex -13.9555 10.1393 12
      vertex -13.9555 10.1393 30
      vertex -15.7587 7.01621 30
    endloop
  endfacet
  facet normal 0.866025 -0.5 0
    outer loop
      vertex -15.7587 7.01621 12
      vertex -13.9555 10.1393 12
      vertex -15.7587 7.01621 30
    endloop
  endfacet
  facet normal 0.951057 -0.309017 0
    outer loop
      vertex -15.7587 7.01621 12
      vertex -15.7587 7.01621 30
      vertex -16.873 3.58648 30
    endloop
  endfacet
  facet normal 0.951057 -0.309017 0
    outer loop
      vertex -16.873 3.58648 12
      vertex -15.7587 7.01621 12
      vertex -16.873 3.58648 30
    endloop
  endfacet
  facet normal 0.994522 -0.104528 0
    outer loop
      vertex -16.873 3.58648 12
      vertex -16.873 3.58648 30
      vertex -17.25 0 30
    endloop
  endfacet
  facet normal 0.994522 -0.104528 0
    outer loop
      vertex -17.25 0 12
      vertex -16.873 3.58648 12
      vertex -17.25 0 30
    endloop
  endfacet
endsolid OpenSCAD_Model
