solid OpenSCAD_Model
  facet normal 0 0 -1
    outer loop
      vertex -14.25 0 0
      vertex -13.9386 2.96274 0
      vertex -13.9386 -2.96274 0
    endloop
  endfacet
  facet normal 0 0 -1
    outer loop
      vertex -13.9386 -2.96274 0
      vertex -13.9386 2.96274 0
      vertex -13.018 5.796 0
    endloop
  endfacet
  facet normal 0 0 -1
    outer loop
      vertex -13.9386 -2.96274 0
      vertex -13.018 5.796 0
      vertex -11.5285 8.37594 0
    endloop
  endfacet
  facet normal 0 0 -1
    outer loop
      vertex -13.9386 -2.96274 0
      vertex -11.5285 8.37594 0
      vertex -9.53511 10.5898 0
    endloop
  endfacet
  facet normal 0 0 -1
    outer loop
      vertex -13.9386 -2.96274 0
      vertex -9.53511 10.5898 0
      vertex -7.125 12.3409 0
    endloop
  endfacet
  facet normal 0 0 -1
    outer loop
      vertex -13.9386 -2.96274 0
      vertex -7.125 12.3409 0
      vertex -4.40349 13.5526 0
    endloop
  endfacet
  facet normal 0 0 -1
    outer loop
      vertex -13.9386 -2.96274 0
      vertex -4.40349 13.5526 0
      vertex -1.48953 14.1719 0
    endloop
  endfacet
  facet normal 0 0 -1
    outer loop
      vertex -13.9386 -2.96274 0
      vertex -1.48953 14.1719 0
      vertex 1.48953 14.1719 0
    endloop
  endfacet
  facet normal 0 0 -1
    outer loop
      vertex -13.9386 -2.96274 0
      vertex 1.48953 14.1719 0
      vertex 4.40349 13.5526 0
    endloop
  endfacet
  facet normal 0 0 -1
    outer loop
      vertex -13.9386 -2.96274 0
      vertex 4.40349 13.5526 0
      vertex 7.125 12.3409 0
    endloop
  endfacet
  facet normal 0 0 -1
    outer loop
      vertex -13.9386 -2.96274 0
      vertex 7.125 12.3409 0
      vertex 9.53511 10.5898 0
    endloop
  endfacet
  facet normal 0 0 -1
    outer loop
      vertex -13.9386 -2.96274 0
      vertex 9.53511 10.5898 0
      vertex 11.5285 8.37594 0
    endloop
  endfacet
  facet normal 0 0 -1
    outer loop
      vertex -13.9386 -2.96274 0
      vertex 11.5285 8.37594 0
      vertex 13.018 5.796 0
    endloop
  endfacet
  facet normal 0 0 -1
    outer loop
      vertex 1.29904 0.75 0
      vertex 13.018 5.796 0
      vertex 13.9386 2.96274 0
    endloop
  endfacet
  facet normal 0 0 -1
    outer loop
      vertex 0 -1.5 0
      vertex 14.25 0 0
      vertex 13.9386 -2.96274 0
    endloop
  endfacet
  facet normal 0 0 -1
    outer loop
      vertex -13.9386 -2.96274 0
      vertex 13.9386 -2.96274 0
      vertex 13.018 -5.796 0
    endloop
  endfacet
  facet normal 0 0 -1
    outer loop
      vertex -13.9386 -2.96274 0
      vertex 13.018 -5.796 0
      vertex 11.5285 -8.37594 0
    endloop
  endfacet
  facet normal 0 0 -1
    outer loop
      vertex -13.9386 -2.96274 0
      vertex 11.5285 -8.37594 0
      vertex 9.53511 -10.5898 0
    endloop
  endfacet
  facet normal 0 0 -1
    outer loop
      vertex -13.9386 -2.96274 0
      vertex 9.53511 -10.5898 0
      vertex 7.125 -12.3409 0
    endloop
  endfacet
  facet normal 0 0 -1
    outer loop
      vertex -13.9386 -2.96274 0
      vertex 7.125 -12.3409 0
      vertex 4.40349 -13.5526 0
    endloop
  endfacet
  facet normal 0 0 -1
    outer loop
      vertex -13.9386 -2.96274 0
      vertex 4.40349 -13.5526 0
      vertex 1.48953 -14.1719 0
    endloop
  endfacet
  facet normal 0 0 -1
    outer loop
      vertex -13.9386 -2.96274 0
      vertex 1.48953 -14.1719 0
      vertex -1.48953 -14.1719 0
    endloop
  endfacet
  facet normal 0 0 -1
    outer loop
      vertex -13.9386 -2.96274 0
      vertex -1.48953 -14.1719 0
      vertex -4.40349 -13.5526 0
    endloop
  endfacet
  facet normal 0 0 -1
    outer loop
      vertex -13.9386 -2.96274 0
      vertex -4.40349 -13.5526 0
      vertex -7.125 -12.3409 0
    endloop
  endfacet
  facet normal 0 0 -1
    outer loop
      vertex -13.9386 -2.96274 0
      vertex -7.125 -12.3409 0
      vertex -9.53511 -10.5898 0
    endloop
  endfacet
  facet normal 0 0 -1
    outer loop
      vertex -13.9386 -2.96274 0
      vertex -9.53511 -10.5898 0
      vertex -11.5285 -8.37594 0
    endloop
  endfacet
  facet normal 0 0 -1
    outer loop
      vertex -13.9386 -2.96274 0
      vertex -11.5285 -8.37594 0
      vertex -13.018 -5.796 0
    endloop
  endfacet
  facet normal 0 0 -1
    outer loop
      vertex -1.29904 0.75 0
      vertex -13.9386 -2.96274 0
      vertex -0.75 1.29904 0
    endloop
  endfacet
  facet normal 0 0 -1
    outer loop
      vertex 1.29904 0.75 0
      vertex 13.9386 2.96274 0
      vertex 1.5 0 0
    endloop
  endfacet
  facet normal 0 0 -1
    outer loop
      vertex -13.9386 -2.96274 0
      vertex -1.29904 -0.75 0
      vertex -0.75 -1.29904 0
    endloop
  endfacet
  facet normal 0 0 -1
    outer loop
      vertex 1.5 0 0
      vertex 14.25 0 0
      vertex 1.29904 -0.75 0
    endloop
  endfacet
  facet normal 0 0 -1
    outer loop
      vertex 1.29904 -0.75 0
      vertex 14.25 0 0
      vertex 0.75 -1.29904 0
    endloop
  endfacet
  facet normal 0 0 -1
    outer loop
      vertex -13.9386 -2.96274 0
      vertex 0 -1.5 0
      vertex 13.9386 -2.96274 0
    endloop
  endfacet
  facet normal 0 0 -1
    outer loop
      vertex 1.5 0 0
      vertex 13.9386 2.96274 0
      vertex 14.25 0 0
    endloop
  endfacet
  facet normal 0 0 -1
    outer loop
      vertex 0.75 -1.29904 0
      vertex 14.25 0 0
      vertex 0 -1.5 0
    endloop
  endfacet
  facet normal 0 0 -1
    outer loop
      vertex 0 -1.5 0
      vertex -13.9386 -2.96274 0
      vertex -0.75 -1.29904 0
    endloop
  endfacet
  facet normal 0 0 -1
    outer loop
      vertex 0.75 1.29904 0
      vertex 13.018 5.796 0
      vertex 1.29904 0.75 0
    endloop
  endfacet
  facet normal 0 0 -1
    outer loop
      vertex 0 1.5 0
      vertex 13.018 5.796 0
      vertex 0.75 1.29904 0
    endloop
  endfacet
  facet normal 0 0 -1
    outer loop
      vertex -1.29904 -0.75 0
      vertex -13.9386 -2.96274 0
      vertex -1.5 0 0
    endloop
  endfacet
  facet normal 0 0 -1
    outer loop
      vertex -0.75 1.29904 0
      vertex 13.018 5.796 0
      vertex 0 1.5 0
    endloop
  endfacet
  facet normal 0 0 -1
    outer loop
      vertex -13.9386 -2.96274 0
      vertex 13.018 5.796 0
      vertex -0.75 1.29904 0
    endloop
  endfacet
  facet normal 0 0 -1
    outer loop
      vertex -1.5 0 0
      vertex -13.9386 -2.96274 0
      vertex -1.29904 0.75 0
    endloop
  endfacet
  facet normal -0.994522 0.104529 0
    outer loop
      vertex -14.25 0 0
      vertex -14.25 0 20
      vertex -13.9386 2.96274 0
    endloop
  endfacet
  facet normal -0.994522 0.104529 0
    outer loop
      vertex -13.9386 2.96274 0
      vertex -14.25 0 20
      vertex -13.9386 2.96274 20
    endloop
  endfacet
  facet normal -0.994522 -0.104529 0
    outer loop
      vertex -14.25 0 0
      vertex -13.9386 -2.96274 0
      vertex -14.25 0 20
    endloop
  endfacet
  facet normal -0.994522 -0.104529 0
    outer loop
      vertex -14.25 0 20
      vertex -13.9386 -2.96274 0
      vertex -13.9386 -2.96274 20
    endloop
  endfacet
  facet normal -0.951057 -0.309017 0
    outer loop
      vertex -13.9386 -2.96274 0
      vertex -13.018 -5.796 0
      vertex -13.9386 -2.96274 20
    endloop
  endfacet
  facet normal -0.951057 -0.309017 0
    outer loop
      vertex -13.9386 -2.96274 20
      vertex -13.018 -5.796 0
      vertex -13.018 -5.796 20
    endloop
  endfacet
  facet normal -0.866025 -0.5 0
    outer loop
      vertex -13.018 -5.796 0
      vertex -11.5285 -8.37594 0
      vertex -13.018 -5.796 20
    endloop
  endfacet
  facet normal -0.866025 -0.5 0
    outer loop
      vertex -13.018 -5.796 20
      vertex -11.5285 -8.37594 0
      vertex -11.5285 -8.37594 20
    endloop
  endfacet
  facet normal -0.743145 -0.669131 0
    outer loop
      vertex -11.5285 -8.37594 0
      vertex -9.53511 -10.5898 0
      vertex -11.5285 -8.37594 20
    endloop
  endfacet
  facet normal -0.743145 -0.669131 0
    outer loop
      vertex -11.5285 -8.37594 20
      vertex -9.53511 -10.5898 0
      vertex -9.53511 -10.5898 20
    endloop
  endfacet
  facet normal -0.587785 -0.809017 0
    outer loop
      vertex -9.53511 -10.5898 20
      vertex -9.53511 -10.5898 0
      vertex -7.125 -12.3409 0
    endloop
  endfacet
  facet normal -0.587785 -0.809017 0
    outer loop
      vertex -7.125 -12.3409 20
      vertex -9.53511 -10.5898 20
      vertex -7.125 -12.3409 0
    endloop
  endfacet
  facet normal -0.406737 -0.913546 0
    outer loop
      vertex -7.125 -12.3409 20
      vertex -7.125 -12.3409 0
      vertex -4.40349 -13.5526 0
    endloop
  endfacet
  facet normal -0.406737 -0.913546 0
    outer loop
      vertex -4.40349 -13.5526 20
      vertex -7.125 -12.3409 20
      vertex -4.40349 -13.5526 0
    endloop
  endfacet
  facet normal -0.207912 -0.978148 0
    outer loop
      vertex -4.40349 -13.5526 20
      vertex -4.40349 -13.5526 0
      vertex -1.48953 -14.1719 0
    endloop
  endfacet
  facet normal -0.207912 -0.978148 0
    outer loop
      vertex -1.48953 -14.1719 20
      vertex -4.40349 -13.5526 20
      vertex -1.48953 -14.1719 0
    endloop
  endfacet
  facet normal 0 -1 0
    outer loop
      vertex -1.48953 -14.1719 20
      vertex -1.48953 -14.1719 0
      vertex 1.48953 -14.1719 0
    endloop
  endfacet
  facet normal 0 -1 0
    outer loop
      vertex 1.48953 -14.1719 20
      vertex -1.48953 -14.1719 20
      vertex 1.48953 -14.1719 0
    endloop
  endfacet
  facet normal 0.207912 -0.978148 0
    outer loop
      vertex 1.48953 -14.1719 20
      vertex 1.48953 -14.1719 0
      vertex 4.40349 -13.5526 0
    endloop
  endfacet
  facet normal 0.207912 -0.978148 0
    outer loop
      vertex 4.40349 -13.5526 20
      vertex 1.48953 -14.1719 20
      vertex 4.40349 -13.5526 0
    endloop
  endfacet
  facet normal 0.406737 -0.913546 0
    outer loop
      vertex 4.40349 -13.5526 20
      vertex 4.40349 -13.5526 0
      vertex 7.125 -12.3409 0
    endloop
  endfacet
  facet normal 0.406737 -0.913546 0
    outer loop
      vertex 7.125 -12.3409 20
      vertex 4.40349 -13.5526 20
      vertex 7.125 -12.3409 0
    endloop
  endfacet
  facet normal 0.587785 -0.809017 0
    outer loop
      vertex 7.125 -12.3409 20
      vertex 7.125 -12.3409 0
      vertex 9.53511 -10.5898 0
    endloop
  endfacet
  facet normal 0.587785 -0.809017 0
    outer loop
      vertex 9.53511 -10.5898 20
      vertex 7.125 -12.3409 20
      vertex 9.53511 -10.5898 0
    endloop
  endfacet
  facet normal 0.743145 -0.669131 0
    outer loop
      vertex 9.53511 -10.5898 20
      vertex 9.53511 -10.5898 0
      vertex 11.5285 -8.37594 0
    endloop
  endfacet
  facet normal 0.743145 -0.669131 0
    outer loop
      vertex 11.5285 -8.37594 20
      vertex 9.53511 -10.5898 20
      vertex 11.5285 -8.37594 0
    endloop
  endfacet
  facet normal 0.866025 -0.5 0
    outer loop
      vertex 11.5285 -8.37594 20
      vertex 11.5285 -8.37594 0
      vertex 13.018 -5.796 0
    endloop
  endfacet
  facet normal 0.866025 -0.5 0
    outer loop
      vertex 13.018 -5.796 20
      vertex 11.5285 -8.37594 20
      vertex 13.018 -5.796 0
    endloop
  endfacet
  facet normal 0.951057 -0.309017 0
    outer loop
      vertex 13.018 -5.796 20
      vertex 13.018 -5.796 0
      vertex 13.9386 -2.96274 0
    endloop
  endfacet
  facet normal 0.951057 -0.309017 0
    outer loop
      vertex 13.9386 -2.96274 20
      vertex 13.018 -5.796 20
      vertex 13.9386 -2.96274 0
    endloop
  endfacet
  facet normal 0.994522 -0.104529 0
    outer loop
      vertex 13.9386 -2.96274 20
      vertex 13.9386 -2.96274 0
      vertex 14.25 0 0
    endloop
  endfacet
  facet normal 0.994522 -0.104529 0
    outer loop
      vertex 14.25 0 20
      vertex 13.9386 -2.96274 20
      vertex 14.25 0 0
    endloop
  endfacet
  facet normal 0.994522 0.104529 0
    outer loop
      vertex 14.25 0 0
      vertex 13.9386 2.96274 0
      vertex 13.9386 2.96274 20
    endloop
  endfacet
  facet normal 0.994522 0.104529 0
    outer loop
      vertex 14.25 0 20
      vertex 14.25 0 0
      vertex 13.9386 2.96274 20
    endloop
  endfacet
  facet normal 0.951057 0.309017 0
    outer loop
      vertex 13.9386 2.96274 0
      vertex 13.018 5.796 0
      vertex 13.018 5.796 20
    endloop
  endfacet
  facet normal 0.951057 0.309017 0
    outer loop
      vertex 13.9386 2.96274 20
      vertex 13.9386 2.96274 0
      vertex 13.018 5.796 20
    endloop
  endfacet
  facet normal 0.866025 0.5 0
    outer loop
      vertex 13.018 5.796 0
      vertex 11.5285 8.37594 0
      vertex 11.5285 8.37594 20
    endloop
  endfacet
  facet normal 0.866025 0.5 0
    outer loop
      vertex 13.018 5.796 20
      vertex 13.018 5.796 0
      vertex 11.5285 8.37594 20
    endloop
  endfacet
  facet normal 0.743145 0.669131 0
    outer loop
      vertex 11.5285 8.37594 0
      vertex 9.53511 10.5898 0
      vertex 9.53511 10.5898 20
    endloop
  endfacet
  facet normal 0.743145 0.669131 0
    outer loop
      vertex 11.5285 8.37594 20
      vertex 11.5285 8.37594 0
      vertex 9.53511 10.5898 20
    endloop
  endfacet
  facet normal 0.587785 0.809017 0
    outer loop
      vertex 7.125 12.3409 0
      vertex 7.125 12.3409 20
      vertex 9.53511 10.5898 0
    endloop
  endfacet
  facet normal 0.587785 0.809017 0
    outer loop
      vertex 9.53511 10.5898 0
      vertex 7.125 12.3409 20
      vertex 9.53511 10.5898 20
    endloop
  endfacet
  facet normal 0.406737 0.913546 0
    outer loop
      vertex 4.40349 13.5526 0
      vertex 4.40349 13.5526 20
      vertex 7.125 12.3409 0
    endloop
  endfacet
  facet normal 0.406737 0.913546 0
    outer loop
      vertex 7.125 12.3409 0
      vertex 4.40349 13.5526 20
      vertex 7.125 12.3409 20
    endloop
  endfacet
  facet normal 0.207912 0.978148 0
    outer loop
      vertex 1.48953 14.1719 0
      vertex 1.48953 14.1719 20
      vertex 4.40349 13.5526 0
    endloop
  endfacet
  facet normal 0.207912 0.978148 0
    outer loop
      vertex 4.40349 13.5526 0
      vertex 1.48953 14.1719 20
      vertex 4.40349 13.5526 20
    endloop
  endfacet
  facet normal 0 1 0
    outer loop
      vertex -1.48953 14.1719 0
      vertex -1.48953 14.1719 20
      vertex 1.48953 14.1719 0
    endloop
  endfacet
  facet normal 0 1 0
    outer loop
      vertex 1.48953 14.1719 0
      vertex -1.48953 14.1719 20
      vertex 1.48953 14.1719 20
    endloop
  endfacet
  facet normal -0.207912 0.978148 0
    outer loop
      vertex -4.40349 13.5526 0
      vertex -4.40349 13.5526 20
      vertex -1.48953 14.1719 0
    endloop
  endfacet
  facet normal -0.207912 0.978148 0
    outer loop
      vertex -1.48953 14.1719 0
      vertex -4.40349 13.5526 20
      vertex -1.48953 14.1719 20
    endloop
  endfacet
  facet normal -0.406737 0.913546 0
    outer loop
      vertex -7.125 12.3409 0
      vertex -7.125 12.3409 20
      vertex -4.40349 13.5526 0
    endloop
  endfacet
  facet normal -0.406737 0.913546 0
    outer loop
      vertex -4.40349 13.5526 0
      vertex -7.125 12.3409 20
      vertex -4.40349 13.5526 20
    endloop
  endfacet
  facet normal -0.587785 0.809017 0
    outer loop
      vertex -9.53511 10.5898 0
      vertex -9.53511 10.5898 20
      vertex -7.125 12.3409 0
    endloop
  endfacet
  facet normal -0.587785 0.809017 0
    outer loop
      vertex -7.125 12.3409 0
      vertex -9.53511 10.5898 20
      vertex -7.125 12.3409 20
    endloop
  endfacet
  facet normal -0.743145 0.669131 0
    outer loop
      vertex -11.5285 8.37594 0
      vertex -11.5285 8.37594 20
      vertex -9.53511 10.5898 0
    endloop
  endfacet
  facet normal -0.743145 0.669131 0
    outer loop
      vertex -9.53511 10.5898 0
      vertex -11.5285 8.37594 20
      vertex -9.53511 10.5898 20
    endloop
  endfacet
  facet normal -0.866025 0.5 0
    outer loop
      vertex -13.018 5.796 0
      vertex -13.018 5.796 20
      vertex -11.5285 8.37594 0
    endloop
  endfacet
  facet normal -0.866025 0.5 0
    outer loop
      vertex -11.5285 8.37594 0
      vertex -13.018 5.796 20
      vertex -11.5285 8.37594 20
    endloop
  endfacet
  facet normal -0.951057 0.309017 0
    outer loop
      vertex -13.9386 2.96274 0
      vertex -13.9386 2.96274 20
      vertex -13.018 5.796 0
    endloop
  endfacet
  facet normal -0.951057 0.309017 0
    outer loop
      vertex -13.018 5.796 0
      vertex -13.9386 2.96274 20
      vertex -13.018 5.796 20
    endloop
  endfacet
  facet normal 0.965926 -0.258819 0
    outer loop
      vertex -1.29904 0.75 0
      vertex -1.29904 0.75 2
      vertex -1.5 0 2
    endloop
  endfacet
  facet normal 0.965926 -0.258819 0
    outer loop
      vertex -1.5 0 0
      vertex -1.29904 0.75 0
      vertex -1.5 0 2
    endloop
  endfacet
  facet normal 0.965926 0.258819 0
    outer loop
      vertex -1.5 0 2
      vertex -1.29904 -0.75 2
      vertex -1.29904 -0.75 0
    endloop
  endfacet
  facet normal 0.965926 0.258819 0
    outer loop
      vertex -1.5 0 0
      vertex -1.5 0 2
      vertex -1.29904 -0.75 0
    endloop
  endfacet
  facet normal 0.707107 -0.707107 0
    outer loop
      vertex -0.75 1.29904 0
      vertex -0.75 1.29904 2
      vertex -1.29904 0.75 2
    endloop
  endfacet
  facet normal 0.707107 -0.707107 0
    outer loop
      vertex -1.29904 0.75 0
      vertex -0.75 1.29904 0
      vertex -1.29904 0.75 2
    endloop
  endfacet
  facet normal 0.258819 -0.965926 0
    outer loop
      vertex 0 1.5 0
      vertex 0 1.5 2
      vertex -0.75 1.29904 2
    endloop
  endfacet
  facet normal 0.258819 -0.965926 0
    outer loop
      vertex -0.75 1.29904 0
      vertex 0 1.5 0
      vertex -0.75 1.29904 2
    endloop
  endfacet
  facet normal -0.258819 -0.965926 0
    outer loop
      vertex 0.75 1.29904 0
      vertex 0.75 1.29904 2
      vertex 0 1.5 2
    endloop
  endfacet
  facet normal -0.258819 -0.965926 0
    outer loop
      vertex 0 1.5 0
      vertex 0.75 1.29904 0
      vertex 0 1.5 2
    endloop
  endfacet
  facet normal -0.707107 -0.707107 0
    outer loop
      vertex 1.29904 0.75 0
      vertex 1.29904 0.75 2
      vertex 0.75 1.29904 2
    endloop
  endfacet
  facet normal -0.707107 -0.707107 0
    outer loop
      vertex 0.75 1.29904 0
      vertex 1.29904 0.75 0
      vertex 0.75 1.29904 2
    endloop
  endfacet
  facet normal -0.965926 -0.258819 0
    outer loop
      vertex 1.5 0 2
      vertex 1.29904 0.75 2
      vertex 1.5 0 0
    endloop
  endfacet
  facet normal -0.965926 -0.258819 0
    outer loop
      vertex 1.5 0 0
      vertex 1.29904 0.75 2
      vertex 1.29904 0.75 0
    endloop
  endfacet
  facet normal -0.965926 0.258819 0
    outer loop
      vertex 1.5 0 2
      vertex 1.5 0 0
      vertex 1.29904 -0.75 2
    endloop
  endfacet
  facet normal -0.965926 0.258819 0
    outer loop
      vertex 1.29904 -0.75 2
      vertex 1.5 0 0
      vertex 1.29904 -0.75 0
    endloop
  endfacet
  facet normal -0.707107 0.707107 0
    outer loop
      vertex 1.29904 -0.75 2
      vertex 1.29904 -0.75 0
      vertex 0.75 -1.29904 2
    endloop
  endfacet
  facet normal -0.707107 0.707107 0
    outer loop
      vertex 0.75 -1.29904 2
      vertex 1.29904 -0.75 0
      vertex 0.75 -1.29904 0
    endloop
  endfacet
  facet normal -0.258819 0.965926 0
    outer loop
      vertex 0.75 -1.29904 2
      vertex 0.75 -1.29904 0
      vertex 0 -1.5 2
    endloop
  endfacet
  facet normal -0.258819 0.965926 0
    outer loop
      vertex 0 -1.5 2
      vertex 0.75 -1.29904 0
      vertex 0 -1.5 0
    endloop
  endfacet
  facet normal 0.258819 0.965926 0
    outer loop
      vertex 0 -1.5 2
      vertex 0 -1.5 0
      vertex -0.75 -1.29904 2
    endloop
  endfacet
  facet normal 0.258819 0.965926 0
    outer loop
      vertex -0.75 -1.29904 2
      vertex 0 -1.5 0
      vertex -0.75 -1.29904 0
    endloop
  endfacet
  facet normal 0.707107 0.707107 0
    outer loop
      vertex -0.75 -1.29904 2
      vertex -0.75 -1.29904 0
      vertex -1.29904 -0.75 2
    endloop
  endfacet
  facet normal 0.707107 0.707107 0
    outer loop
      vertex -1.29904 -0.75 2
      vertex -0.75 -1.29904 0
      vertex -1.29904 -0.75 0
    endloop
  endfacet
  facet normal 0 0 1
    outer loop
      vertex -13.9386 2.96274 20
      vertex -14.25 0 20
      vertex -13.9386 -2.96274 20
    endloop
  endfacet
  facet normal 0 0 1
    outer loop
      vertex -11.5285 -8.37594 20
      vertex -13.9386 2.96274 20
      vertex -13.018 -5.796 20
    endloop
  endfacet
  facet normal 0 0 1
    outer loop
      vertex -13.018 -5.796 20
      vertex -13.9386 2.96274 20
      vertex -13.9386 -2.96274 20
    endloop
  endfacet
  facet normal 0 0 1
    outer loop
      vertex -9.53511 -10.5898 20
      vertex -13.9386 2.96274 20
      vertex -11.5285 -8.37594 20
    endloop
  endfacet
  facet normal 0 0 1
    outer loop
      vertex -11.9823 -2.54692 20
      vertex -13.9386 2.96274 20
      vertex -9.53511 -10.5898 20
    endloop
  endfacet
  facet normal 0 0 1
    outer loop
      vertex -6.125 10.6088 20
      vertex -3.78546 11.6504 20
      vertex -1.48953 14.1719 20
    endloop
  endfacet
  facet normal 0 0 1
    outer loop
      vertex -1.28047 12.1829 20
      vertex 1.28047 12.1829 20
      vertex 1.48953 14.1719 20
    endloop
  endfacet
  facet normal 0 0 1
    outer loop
      vertex -7.125 12.3409 20
      vertex -13.9386 2.96274 20
      vertex -4.40349 13.5526 20
    endloop
  endfacet
  facet normal 0 0 1
    outer loop
      vertex -9.53511 10.5898 20
      vertex -13.9386 2.96274 20
      vertex -7.125 12.3409 20
    endloop
  endfacet
  facet normal 0 0 1
    outer loop
      vertex -11.5285 8.37594 20
      vertex -13.9386 2.96274 20
      vertex -9.53511 10.5898 20
    endloop
  endfacet
  facet normal 0 0 1
    outer loop
      vertex -13.018 5.796 20
      vertex -13.9386 2.96274 20
      vertex -11.5285 8.37594 20
    endloop
  endfacet
  facet normal 0 0 1
    outer loop
      vertex -11.1909 -4.98252 20
      vertex -11.9823 -2.54692 20
      vertex -9.53511 -10.5898 20
    endloop
  endfacet
  facet normal 0 0 1
    outer loop
      vertex 8.19685 -9.10352 20
      vertex 6.125 -10.6088 20
      vertex 9.53511 -10.5898 20
    endloop
  endfacet
  facet normal 0 0 1
    outer loop
      vertex 9.91046 -7.20037 20
      vertex 8.19685 -9.10352 20
      vertex 11.5285 -8.37594 20
    endloop
  endfacet
  facet normal 0 0 1
    outer loop
      vertex 1.28047 12.1829 20
      vertex 3.78546 11.6504 20
      vertex 4.40349 13.5526 20
    endloop
  endfacet
  facet normal 0 0 1
    outer loop
      vertex -3.78546 -11.6504 20
      vertex -6.125 -10.6088 20
      vertex -4.40349 -13.5526 20
    endloop
  endfacet
  facet normal 0 0 1
    outer loop
      vertex -4.40349 13.5526 20
      vertex -13.9386 2.96274 20
      vertex -9.91046 7.20037 20
    endloop
  endfacet
  facet normal 0 0 1
    outer loop
      vertex -4.40349 13.5526 20
      vertex -8.19685 9.10352 20
      vertex -1.48953 14.1719 20
    endloop
  endfacet
  facet normal 0 0 1
    outer loop
      vertex -4.40349 13.5526 20
      vertex -9.91046 7.20037 20
      vertex -8.19685 9.10352 20
    endloop
  endfacet
  facet normal 0 0 1
    outer loop
      vertex -8.19685 9.10352 20
      vertex -6.125 10.6088 20
      vertex -1.48953 14.1719 20
    endloop
  endfacet
  facet normal 0 0 1
    outer loop
      vertex -1.48953 14.1719 20
      vertex -3.78546 11.6504 20
      vertex 1.48953 14.1719 20
    endloop
  endfacet
  facet normal 0 0 1
    outer loop
      vertex -3.78546 11.6504 20
      vertex -1.28047 12.1829 20
      vertex 1.48953 14.1719 20
    endloop
  endfacet
  facet normal 0 0 1
    outer loop
      vertex 1.48953 14.1719 20
      vertex 1.28047 12.1829 20
      vertex 4.40349 13.5526 20
    endloop
  endfacet
  facet normal 0 0 1
    outer loop
      vertex -11.1909 4.98252 20
      vertex -9.91046 7.20037 20
      vertex -13.9386 2.96274 20
    endloop
  endfacet
  facet normal 0 0 1
    outer loop
      vertex 4.40349 13.5526 20
      vertex 3.78546 11.6504 20
      vertex 7.125 12.3409 20
    endloop
  endfacet
  facet normal 0 0 1
    outer loop
      vertex 7.125 12.3409 20
      vertex 6.125 10.6088 20
      vertex 9.53511 10.5898 20
    endloop
  endfacet
  facet normal 0 0 1
    outer loop
      vertex 9.53511 10.5898 20
      vertex 8.19685 9.10352 20
      vertex 11.5285 8.37594 20
    endloop
  endfacet
  facet normal 0 0 1
    outer loop
      vertex 11.5285 8.37594 20
      vertex 9.91046 7.20037 20
      vertex 13.018 5.796 20
    endloop
  endfacet
  facet normal 0 0 1
    outer loop
      vertex 13.018 5.796 20
      vertex 11.1909 4.98252 20
      vertex 13.9386 2.96274 20
    endloop
  endfacet
  facet normal 0 0 1
    outer loop
      vertex 13.9386 2.96274 20
      vertex 11.9823 2.54692 20
      vertex 14.25 0 20
    endloop
  endfacet
  facet normal 0 0 1
    outer loop
      vertex 14.25 0 20
      vertex 12.25 0 20
      vertex 13.9386 -2.96274 20
    endloop
  endfacet
  facet normal 0 0 1
    outer loop
      vertex 12.25 0 20
      vertex 11.9823 -2.54692 20
      vertex 13.9386 -2.96274 20
    endloop
  endfacet
  facet normal 0 0 1
    outer loop
      vertex 13.9386 -2.96274 20
      vertex 11.1909 -4.98252 20
      vertex 13.018 -5.796 20
    endloop
  endfacet
  facet normal 0 0 1
    outer loop
      vertex 13.018 -5.796 20
      vertex 9.91046 -7.20037 20
      vertex 11.5285 -8.37594 20
    endloop
  endfacet
  facet normal 0 0 1
    outer loop
      vertex 3.78546 11.6504 20
      vertex 6.125 10.6088 20
      vertex 7.125 12.3409 20
    endloop
  endfacet
  facet normal 0 0 1
    outer loop
      vertex 11.5285 -8.37594 20
      vertex 8.19685 -9.10352 20
      vertex 9.53511 -10.5898 20
    endloop
  endfacet
  facet normal 0 0 1
    outer loop
      vertex 6.125 10.6088 20
      vertex 8.19685 9.10352 20
      vertex 9.53511 10.5898 20
    endloop
  endfacet
  facet normal 0 0 1
    outer loop
      vertex 9.53511 -10.5898 20
      vertex 6.125 -10.6088 20
      vertex 7.125 -12.3409 20
    endloop
  endfacet
  facet normal 0 0 1
    outer loop
      vertex 8.19685 9.10352 20
      vertex 9.91046 7.20037 20
      vertex 11.5285 8.37594 20
    endloop
  endfacet
  facet normal 0 0 1
    outer loop
      vertex 7.125 -12.3409 20
      vertex 3.78546 -11.6504 20
      vertex 4.40349 -13.5526 20
    endloop
  endfacet
  facet normal 0 0 1
    outer loop
      vertex 9.91046 7.20037 20
      vertex 11.1909 4.98252 20
      vertex 13.018 5.796 20
    endloop
  endfacet
  facet normal 0 0 1
    outer loop
      vertex 4.40349 -13.5526 20
      vertex 1.28047 -12.1829 20
      vertex 1.48953 -14.1719 20
    endloop
  endfacet
  facet normal 0 0 1
    outer loop
      vertex 11.1909 4.98252 20
      vertex 11.9823 2.54692 20
      vertex 13.9386 2.96274 20
    endloop
  endfacet
  facet normal 0 0 1
    outer loop
      vertex 1.48953 -14.1719 20
      vertex -1.28047 -12.1829 20
      vertex -1.48953 -14.1719 20
    endloop
  endfacet
  facet normal 0 0 1
    outer loop
      vertex 11.9823 2.54692 20
      vertex 12.25 0 20
      vertex 14.25 0 20
    endloop
  endfacet
  facet normal 0 0 1
    outer loop
      vertex -1.48953 -14.1719 20
      vertex -3.78546 -11.6504 20
      vertex -4.40349 -13.5526 20
    endloop
  endfacet
  facet normal 0 0 1
    outer loop
      vertex 11.9823 -2.54692 20
      vertex 11.1909 -4.98252 20
      vertex 13.9386 -2.96274 20
    endloop
  endfacet
  facet normal 0 0 1
    outer loop
      vertex -4.40349 -13.5526 20
      vertex -6.125 -10.6088 20
      vertex -7.125 -12.3409 20
    endloop
  endfacet
  facet normal 0 0 1
    outer loop
      vertex -6.125 -10.6088 20
      vertex -8.19685 -9.10352 20
      vertex -7.125 -12.3409 20
    endloop
  endfacet
  facet normal 0 0 1
    outer loop
      vertex -7.125 -12.3409 20
      vertex -9.91046 -7.20037 20
      vertex -9.53511 -10.5898 20
    endloop
  endfacet
  facet normal 0 0 1
    outer loop
      vertex -9.91046 -7.20037 20
      vertex -11.1909 -4.98252 20
      vertex -9.53511 -10.5898 20
    endloop
  endfacet
  facet normal 0 0 1
    outer loop
      vertex -11.9823 -2.54692 20
      vertex -12.25 0 20
      vertex -13.9386 2.96274 20
    endloop
  endfacet
  facet normal 0 0 1
    outer loop
      vertex 6.125 -10.6088 20
      vertex 3.78546 -11.6504 20
      vertex 7.125 -12.3409 20
    endloop
  endfacet
  facet normal 0 0 1
    outer loop
      vertex 3.78546 -11.6504 20
      vertex 1.28047 -12.1829 20
      vertex 4.40349 -13.5526 20
    endloop
  endfacet
  facet normal 0 0 1
    outer loop
      vertex 1.28047 -12.1829 20
      vertex -1.28047 -12.1829 20
      vertex 1.48953 -14.1719 20
    endloop
  endfacet
  facet normal 0 0 1
    outer loop
      vertex -1.28047 -12.1829 20
      vertex -3.78546 -11.6504 20
      vertex -1.48953 -14.1719 20
    endloop
  endfacet
  facet normal 0 0 1
    outer loop
      vertex -8.19685 -9.10352 20
      vertex -9.91046 -7.20037 20
      vertex -7.125 -12.3409 20
    endloop
  endfacet
  facet normal 0 0 1
    outer loop
      vertex -12.25 0 20
      vertex -11.9823 2.54692 20
      vertex -13.9386 2.96274 20
    endloop
  endfacet
  facet normal 0 0 1
    outer loop
      vertex 11.1909 -4.98252 20
      vertex 9.91046 -7.20037 20
      vertex 13.018 -5.796 20
    endloop
  endfacet
  facet normal 0 0 1
    outer loop
      vertex -11.9823 2.54692 20
      vertex -11.1909 4.98252 20
      vertex -13.9386 2.96274 20
    endloop
  endfacet
  facet normal 0 0 1
    outer loop
      vertex -11.9823 -2.54692 2
      vertex -11.1909 -4.98252 2
      vertex -9.91046 -7.20037 2
    endloop
  endfacet
  facet normal 0 0 1
    outer loop
      vertex -6.125 -10.6088 2
      vertex -11.9823 -2.54692 2
      vertex -8.19685 -9.10352 2
    endloop
  endfacet
  facet normal 0 0 1
    outer loop
      vertex -8.19685 -9.10352 2
      vertex -11.9823 -2.54692 2
      vertex -9.91046 -7.20037 2
    endloop
  endfacet
  facet normal 0 0 1
    outer loop
      vertex -3.78546 -11.6504 2
      vertex -11.9823 -2.54692 2
      vertex -6.125 -10.6088 2
    endloop
  endfacet
  facet normal 0 0 1
    outer loop
      vertex -1.28047 -12.1829 2
      vertex -11.9823 -2.54692 2
      vertex -3.78546 -11.6504 2
    endloop
  endfacet
  facet normal 0 0 1
    outer loop
      vertex 1.28047 -12.1829 2
      vertex -11.9823 -2.54692 2
      vertex -1.28047 -12.1829 2
    endloop
  endfacet
  facet normal 0 0 1
    outer loop
      vertex 3.78546 -11.6504 2
      vertex -11.9823 -2.54692 2
      vertex 1.28047 -12.1829 2
    endloop
  endfacet
  facet normal 0 0 1
    outer loop
      vertex 6.125 -10.6088 2
      vertex -11.9823 -2.54692 2
      vertex 3.78546 -11.6504 2
    endloop
  endfacet
  facet normal 0 0 1
    outer loop
      vertex 8.19685 -9.10352 2
      vertex -11.9823 -2.54692 2
      vertex 6.125 -10.6088 2
    endloop
  endfacet
  facet normal 0 0 1
    outer loop
      vertex 9.91046 -7.20037 2
      vertex -11.9823 -2.54692 2
      vertex 8.19685 -9.10352 2
    endloop
  endfacet
  facet normal 0 0 1
    outer loop
      vertex 11.1909 -4.98252 2
      vertex -11.9823 -2.54692 2
      vertex 9.91046 -7.20037 2
    endloop
  endfacet
  facet normal 0 0 1
    outer loop
      vertex 11.9823 -2.54692 2
      vertex -11.9823 -2.54692 2
      vertex 11.1909 -4.98252 2
    endloop
  endfacet
  facet normal 0 0 1
    outer loop
      vertex 0 -1.5 2
      vertex -11.9823 -2.54692 2
      vertex 11.9823 -2.54692 2
    endloop
  endfacet
  facet normal 0 0 1
    outer loop
      vertex 0 -1.5 2
      vertex -0.75 -1.29904 2
      vertex -11.9823 -2.54692 2
    endloop
  endfacet
  facet normal 0 0 1
    outer loop
      vertex 0.75 1.29904 2
      vertex 1.29904 0.75 2
      vertex 11.1909 4.98252 2
    endloop
  endfacet
  facet normal 0 0 1
    outer loop
      vertex 0 1.5 2
      vertex 0.75 1.29904 2
      vertex 11.1909 4.98252 2
    endloop
  endfacet
  facet normal 0 0 1
    outer loop
      vertex 8.19685 9.10352 2
      vertex -11.9823 -2.54692 2
      vertex 9.91046 7.20037 2
    endloop
  endfacet
  facet normal 0 0 1
    outer loop
      vertex 6.125 10.6088 2
      vertex -11.9823 -2.54692 2
      vertex 8.19685 9.10352 2
    endloop
  endfacet
  facet normal 0 0 1
    outer loop
      vertex 3.78546 11.6504 2
      vertex -11.9823 -2.54692 2
      vertex 6.125 10.6088 2
    endloop
  endfacet
  facet normal 0 0 1
    outer loop
      vertex 1.28047 12.1829 2
      vertex -11.9823 -2.54692 2
      vertex 3.78546 11.6504 2
    endloop
  endfacet
  facet normal 0 0 1
    outer loop
      vertex -1.28047 12.1829 2
      vertex -11.9823 -2.54692 2
      vertex 1.28047 12.1829 2
    endloop
  endfacet
  facet normal 0 0 1
    outer loop
      vertex -3.78546 11.6504 2
      vertex -11.9823 -2.54692 2
      vertex -1.28047 12.1829 2
    endloop
  endfacet
  facet normal 0 0 1
    outer loop
      vertex -6.125 10.6088 2
      vertex -11.9823 -2.54692 2
      vertex -3.78546 11.6504 2
    endloop
  endfacet
  facet normal 0 0 1
    outer loop
      vertex -8.19685 9.10352 2
      vertex -11.9823 -2.54692 2
      vertex -6.125 10.6088 2
    endloop
  endfacet
  facet normal 0 0 1
    outer loop
      vertex -9.91046 7.20037 2
      vertex -11.9823 -2.54692 2
      vertex -8.19685 9.10352 2
    endloop
  endfacet
  facet normal 0 0 1
    outer loop
      vertex -11.1909 4.98252 2
      vertex -11.9823 -2.54692 2
      vertex -9.91046 7.20037 2
    endloop
  endfacet
  facet normal 0 0 1
    outer loop
      vertex -11.9823 2.54692 2
      vertex -11.9823 -2.54692 2
      vertex -11.1909 4.98252 2
    endloop
  endfacet
  facet normal 0 0 1
    outer loop
      vertex -12.25 0 2
      vertex -11.9823 -2.54692 2
      vertex -11.9823 2.54692 2
    endloop
  endfacet
  facet normal 0 0 1
    outer loop
      vertex -1.29904 0.75 2
      vertex -11.9823 -2.54692 2
      vertex -1.5 0 2
    endloop
  endfacet
  facet normal 0 0 1
    outer loop
      vertex 1.29904 -0.75 2
      vertex 0.75 -1.29904 2
      vertex 12.25 0 2
    endloop
  endfacet
  facet normal 0 0 1
    outer loop
      vertex 9.91046 7.20037 2
      vertex -0.75 1.29904 2
      vertex 11.1909 4.98252 2
    endloop
  endfacet
  facet normal 0 0 1
    outer loop
      vertex 9.91046 7.20037 2
      vertex -11.9823 -2.54692 2
      vertex -0.75 1.29904 2
    endloop
  endfacet
  facet normal 0 0 1
    outer loop
      vertex -0.75 1.29904 2
      vertex 0 1.5 2
      vertex 11.1909 4.98252 2
    endloop
  endfacet
  facet normal 0 0 1
    outer loop
      vertex 1.29904 0.75 2
      vertex 1.5 0 2
      vertex 11.9823 2.54692 2
    endloop
  endfacet
  facet normal 0 0 1
    outer loop
      vertex 11.1909 4.98252 2
      vertex 1.29904 0.75 2
      vertex 11.9823 2.54692 2
    endloop
  endfacet
  facet normal 0 0 1
    outer loop
      vertex 11.9823 2.54692 2
      vertex 1.5 0 2
      vertex 12.25 0 2
    endloop
  endfacet
  facet normal 0 0 1
    outer loop
      vertex 1.5 0 2
      vertex 1.29904 -0.75 2
      vertex 12.25 0 2
    endloop
  endfacet
  facet normal 0 0 1
    outer loop
      vertex 12.25 0 2
      vertex 0.75 -1.29904 2
      vertex 11.9823 -2.54692 2
    endloop
  endfacet
  facet normal 0 0 1
    outer loop
      vertex 0.75 -1.29904 2
      vertex 0 -1.5 2
      vertex 11.9823 -2.54692 2
    endloop
  endfacet
  facet normal 0 0 1
    outer loop
      vertex -0.75 -1.29904 2
      vertex -1.29904 -0.75 2
      vertex -11.9823 -2.54692 2
    endloop
  endfacet
  facet normal 0 0 1
    outer loop
      vertex -1.29904 0.75 2
      vertex -0.75 1.29904 2
      vertex -11.9823 -2.54692 2
    endloop
  endfacet
  facet normal 0 0 1
    outer loop
      vertex -1.29904 -0.75 2
      vertex -1.5 0 2
      vertex -11.9823 -2.54692 2
    endloop
  endfacet
  facet normal 0.994522 0.104529 0
    outer loop
      vertex -12.25 0 20
      vertex -11.9823 -2.54692 20
      vertex -11.9823 -2.54692 2
    endloop
  endfacet
  facet normal 0.994522 0.104529 0
    outer loop
      vertex -12.25 0 2
      vertex -12.25 0 20
      vertex -11.9823 -2.54692 2
    endloop
  endfacet
  facet normal 0.951057 0.309017 0
    outer loop
      vertex -11.9823 -2.54692 20
      vertex -11.1909 -4.98252 20
      vertex -11.1909 -4.98252 2
    endloop
  endfacet
  facet normal 0.951057 0.309017 0
    outer loop
      vertex -11.9823 -2.54692 2
      vertex -11.9823 -2.54692 20
      vertex -11.1909 -4.98252 2
    endloop
  endfacet
  facet normal 0.866025 0.5 0
    outer loop
      vertex -11.1909 -4.98252 20
      vertex -9.91046 -7.20037 20
      vertex -9.91046 -7.20037 2
    endloop
  endfacet
  facet normal 0.866025 0.5 0
    outer loop
      vertex -11.1909 -4.98252 2
      vertex -11.1909 -4.98252 20
      vertex -9.91046 -7.20037 2
    endloop
  endfacet
  facet normal 0.743145 0.669131 0
    outer loop
      vertex -9.91046 -7.20037 20
      vertex -8.19685 -9.10352 20
      vertex -8.19685 -9.10352 2
    endloop
  endfacet
  facet normal 0.743145 0.669131 0
    outer loop
      vertex -9.91046 -7.20037 2
      vertex -9.91046 -7.20037 20
      vertex -8.19685 -9.10352 2
    endloop
  endfacet
  facet normal 0.587785 0.809017 0
    outer loop
      vertex -6.125 -10.6088 20
      vertex -6.125 -10.6088 2
      vertex -8.19685 -9.10352 20
    endloop
  endfacet
  facet normal 0.587785 0.809017 0
    outer loop
      vertex -8.19685 -9.10352 20
      vertex -6.125 -10.6088 2
      vertex -8.19685 -9.10352 2
    endloop
  endfacet
  facet normal 0.406737 0.913545 0
    outer loop
      vertex -3.78546 -11.6504 20
      vertex -3.78546 -11.6504 2
      vertex -6.125 -10.6088 20
    endloop
  endfacet
  facet normal 0.406737 0.913545 0
    outer loop
      vertex -6.125 -10.6088 20
      vertex -3.78546 -11.6504 2
      vertex -6.125 -10.6088 2
    endloop
  endfacet
  facet normal 0.207912 0.978148 0
    outer loop
      vertex -1.28047 -12.1829 20
      vertex -1.28047 -12.1829 2
      vertex -3.78546 -11.6504 20
    endloop
  endfacet
  facet normal 0.207912 0.978148 0
    outer loop
      vertex -3.78546 -11.6504 20
      vertex -1.28047 -12.1829 2
      vertex -3.78546 -11.6504 2
    endloop
  endfacet
  facet normal 0 1 0
    outer loop
      vertex 1.28047 -12.1829 20
      vertex 1.28047 -12.1829 2
      vertex -1.28047 -12.1829 20
    endloop
  endfacet
  facet normal 0 1 0
    outer loop
      vertex -1.28047 -12.1829 20
      vertex 1.28047 -12.1829 2
      vertex -1.28047 -12.1829 2
    endloop
  endfacet
  facet normal -0.207912 0.978148 0
    outer loop
      vertex 3.78546 -11.6504 20
      vertex 3.78546 -11.6504 2
      vertex 1.28047 -12.1829 20
    endloop
  endfacet
  facet normal -0.207912 0.978148 0
    outer loop
      vertex 1.28047 -12.1829 20
      vertex 3.78546 -11.6504 2
      vertex 1.28047 -12.1829 2
    endloop
  endfacet
  facet normal -0.406737 0.913545 0
    outer loop
      vertex 6.125 -10.6088 20
      vertex 6.125 -10.6088 2
      vertex 3.78546 -11.6504 20
    endloop
  endfacet
  facet normal -0.406737 0.913545 0
    outer loop
      vertex 3.78546 -11.6504 20
      vertex 6.125 -10.6088 2
      vertex 3.78546 -11.6504 2
    endloop
  endfacet
  facet normal -0.587785 0.809017 0
    outer loop
      vertex 8.19685 -9.10352 20
      vertex 8.19685 -9.10352 2
      vertex 6.125 -10.6088 20
    endloop
  endfacet
  facet normal -0.587785 0.809017 0
    outer loop
      vertex 6.125 -10.6088 20
      vertex 8.19685 -9.10352 2
      vertex 6.125 -10.6088 2
    endloop
  endfacet
  facet normal -0.743145 0.669131 0
    outer loop
      vertex 9.91046 -7.20037 20
      vertex 9.91046 -7.20037 2
      vertex 8.19685 -9.10352 20
    endloop
  endfacet
  facet normal -0.743145 0.669131 0
    outer loop
      vertex 8.19685 -9.10352 20
      vertex 9.91046 -7.20037 2
      vertex 8.19685 -9.10352 2
    endloop
  endfacet
  facet normal -0.866025 0.5 0
    outer loop
      vertex 11.1909 -4.98252 20
      vertex 11.1909 -4.98252 2
      vertex 9.91046 -7.20037 20
    endloop
  endfacet
  facet normal -0.866025 0.5 0
    outer loop
      vertex 9.91046 -7.20037 20
      vertex 11.1909 -4.98252 2
      vertex 9.91046 -7.20037 2
    endloop
  endfacet
  facet normal -0.951057 0.309017 0
    outer loop
      vertex 11.9823 -2.54692 20
      vertex 11.9823 -2.54692 2
      vertex 11.1909 -4.98252 20
    endloop
  endfacet
  facet normal -0.951057 0.309017 0
    outer loop
      vertex 11.1909 -4.98252 20
      vertex 11.9823 -2.54692 2
      vertex 11.1909 -4.98252 2
    endloop
  endfacet
  facet normal -0.994522 0.104529 0
    outer loop
      vertex 12.25 0 20
      vertex 12.25 0 2
      vertex 11.9823 -2.54692 20
    endloop
  endfacet
  facet normal -0.994522 0.104529 0
    outer loop
      vertex 11.9823 -2.54692 20
      vertex 12.25 0 2
      vertex 11.9823 -2.54692 2
    endloop
  endfacet
  facet normal -0.994522 -0.104529 0
    outer loop
      vertex 12.25 0 20
      vertex 11.9823 2.54692 20
      vertex 12.25 0 2
    endloop
  endfacet
  facet normal -0.994522 -0.104529 0
    outer loop
      vertex 12.25 0 2
      vertex 11.9823 2.54692 20
      vertex 11.9823 2.54692 2
    endloop
  endfacet
  facet normal -0.951057 -0.309017 0
    outer loop
      vertex 11.9823 2.54692 20
      vertex 11.1909 4.98252 20
      vertex 11.9823 2.54692 2
    endloop
  endfacet
  facet normal -0.951057 -0.309017 0
    outer loop
      vertex 11.9823 2.54692 2
      vertex 11.1909 4.98252 20
      vertex 11.1909 4.98252 2
    endloop
  endfacet
  facet normal -0.866025 -0.5 0
    outer loop
      vertex 11.1909 4.98252 20
      vertex 9.91046 7.20037 20
      vertex 11.1909 4.98252 2
    endloop
  endfacet
  facet normal -0.866025 -0.5 0
    outer loop
      vertex 11.1909 4.98252 2
      vertex 9.91046 7.20037 20
      vertex 9.91046 7.20037 2
    endloop
  endfacet
  facet normal -0.743145 -0.669131 0
    outer loop
      vertex 9.91046 7.20037 20
      vertex 8.19685 9.10352 20
      vertex 9.91046 7.20037 2
    endloop
  endfacet
  facet normal -0.743145 -0.669131 0
    outer loop
      vertex 9.91046 7.20037 2
      vertex 8.19685 9.10352 20
      vertex 8.19685 9.10352 2
    endloop
  endfacet
  facet normal -0.587785 -0.809017 0
    outer loop
      vertex 8.19685 9.10352 2
      vertex 8.19685 9.10352 20
      vertex 6.125 10.6088 20
    endloop
  endfacet
  facet normal -0.587785 -0.809017 0
    outer loop
      vertex 6.125 10.6088 2
      vertex 8.19685 9.10352 2
      vertex 6.125 10.6088 20
    endloop
  endfacet
  facet normal -0.406737 -0.913545 0
    outer loop
      vertex 6.125 10.6088 2
      vertex 6.125 10.6088 20
      vertex 3.78546 11.6504 20
    endloop
  endfacet
  facet normal -0.406737 -0.913545 0
    outer loop
      vertex 3.78546 11.6504 2
      vertex 6.125 10.6088 2
      vertex 3.78546 11.6504 20
    endloop
  endfacet
  facet normal -0.207912 -0.978148 0
    outer loop
      vertex 3.78546 11.6504 2
      vertex 3.78546 11.6504 20
      vertex 1.28047 12.1829 20
    endloop
  endfacet
  facet normal -0.207912 -0.978148 0
    outer loop
      vertex 1.28047 12.1829 2
      vertex 3.78546 11.6504 2
      vertex 1.28047 12.1829 20
    endloop
  endfacet
  facet normal 0 -1 0
    outer loop
      vertex 1.28047 12.1829 2
      vertex 1.28047 12.1829 20
      vertex -1.28047 12.1829 20
    endloop
  endfacet
  facet normal 0 -1 0
    outer loop
      vertex -1.28047 12.1829 2
      vertex 1.28047 12.1829 2
      vertex -1.28047 12.1829 20
    endloop
  endfacet
  facet normal 0.207912 -0.978148 0
    outer loop
      vertex -1.28047 12.1829 2
      vertex -1.28047 12.1829 20
      vertex -3.78546 11.6504 20
    endloop
  endfacet
  facet normal 0.207912 -0.978148 0
    outer loop
      vertex -3.78546 11.6504 2
      vertex -1.28047 12.1829 2
      vertex -3.78546 11.6504 20
    endloop
  endfacet
  facet normal 0.406737 -0.913545 0
    outer loop
      vertex -3.78546 11.6504 2
      vertex -3.78546 11.6504 20
      vertex -6.125 10.6088 20
    endloop
  endfacet
  facet normal 0.406737 -0.913545 0
    outer loop
      vertex -6.125 10.6088 2
      vertex -3.78546 11.6504 2
      vertex -6.125 10.6088 20
    endloop
  endfacet
  facet normal 0.587785 -0.809017 0
    outer loop
      vertex -6.125 10.6088 2
      vertex -6.125 10.6088 20
      vertex -8.19685 9.10352 20
    endloop
  endfacet
  facet normal 0.587785 -0.809017 0
    outer loop
      vertex -8.19685 9.10352 2
      vertex -6.125 10.6088 2
      vertex -8.19685 9.10352 20
    endloop
  endfacet
  facet normal 0.743145 -0.669131 0
    outer loop
      vertex -8.19685 9.10352 2
      vertex -8.19685 9.10352 20
      vertex -9.91046 7.20037 20
    endloop
  endfacet
  facet normal 0.743145 -0.669131 0
    outer loop
      vertex -9.91046 7.20037 2
      vertex -8.19685 9.10352 2
      vertex -9.91046 7.20037 20
    endloop
  endfacet
  facet normal 0.866025 -0.5 0
    outer loop
      vertex -9.91046 7.20037 2
      vertex -9.91046 7.20037 20
      vertex -11.1909 4.98252 20
    endloop
  endfacet
  facet normal 0.866025 -0.5 0
    outer loop
      vertex -11.1909 4.98252 2
      vertex -9.91046 7.20037 2
      vertex -11.1909 4.98252 20
    endloop
  endfacet
  facet normal 0.951057 -0.309017 0
    outer loop
      vertex -11.1909 4.98252 2
      vertex -11.1909 4.98252 20
      vertex -11.9823 2.54692 20
    endloop
  endfacet
  facet normal 0.951057 -0.309017 0
    outer loop
      vertex -11.9823 2.54692 2
      vertex -11.1909 4.98252 2
      vertex -11.9823 2.54692 20
    endloop
  endfacet
  facet normal 0.994522 -0.104529 0
    outer loop
      vertex -11.9823 2.54692 2
      vertex -11.9823 2.54692 20
      vertex -12.25 0 20
    endloop
  endfacet
  facet normal 0.994522 -0.104529 0
    outer loop
      vertex -12.25 0 2
      vertex -11.9823 2.54692 2
      vertex -12.25 0 20
    endloop
  endfacet
endsolid OpenSCAD_Model
