solid OpenSCAD_Model
  facet normal 0 0 -1
    outer loop
      vertex -50 0 0
      vertex -48.9074 10.3956 0
      vertex -48.9074 -10.3956 0
    endloop
  endfacet
  facet normal 0 0 -1
    outer loop
      vertex -48.9074 -10.3956 0
      vertex -48.9074 10.3956 0
      vertex -45.6773 20.3368 0
    endloop
  endfacet
  facet normal 0 0 -1
    outer loop
      vertex -48.9074 -10.3956 0
      vertex -45.6773 20.3368 0
      vertex -40.4508 29.3893 0
    endloop
  endfacet
  facet normal 0 0 -1
    outer loop
      vertex -48.9074 -10.3956 0
      vertex -40.4508 29.3893 0
      vertex -33.4565 37.1572 0
    endloop
  endfacet
  facet normal 0 0 -1
    outer loop
      vertex -48.9074 -10.3956 0
      vertex -33.4565 37.1572 0
      vertex -25 43.3013 0
    endloop
  endfacet
  facet normal 0 0 -1
    outer loop
      vertex -48.9074 -10.3956 0
      vertex -25 43.3013 0
      vertex -15.4508 47.5528 0
    endloop
  endfacet
  facet normal 0 0 -1
    outer loop
      vertex -48.9074 -10.3956 0
      vertex -15.4508 47.5528 0
      vertex -5.9 49.5829 0
    endloop
  endfacet
  facet normal 0 0 -1
    outer loop
      vertex -48.9074 -10.3956 0
      vertex -5.9 49.5829 0
      vertex -5.9 20 0
    endloop
  endfacet
  facet normal 0 0 -1
    outer loop
      vertex -48.9074 -10.3956 0
      vertex -5.9 20 0
      vertex 5.9 20 0
    endloop
  endfacet
  facet normal 0 0 -1
    outer loop
      vertex 5.9 20 0
      vertex 5.9 49.5829 0
      vertex 15.4508 47.5528 0
    endloop
  endfacet
  facet normal 0 0 -1
    outer loop
      vertex 5.9 20 0
      vertex 15.4508 47.5528 0
      vertex 25 43.3013 0
    endloop
  endfacet
  facet normal 0 0 -1
    outer loop
      vertex 5.9 20 0
      vertex 25 43.3013 0
      vertex 33.4565 37.1572 0
    endloop
  endfacet
  facet normal 0 0 -1
    outer loop
      vertex 5.9 20 0
      vertex 33.4565 37.1572 0
      vertex 40.4508 29.3893 0
    endloop
  endfacet
  facet normal 0 0 -1
    outer loop
      vertex 5.9 20 0
      vertex 40.4508 29.3893 0
      vertex -48.9074 -10.3956 0
    endloop
  endfacet
  facet normal 0 0 -1
    outer loop
      vertex 40.5961 19.6854 0
      vertex 40.4508 29.3893 0
      vertex 45.6773 20.3368 0
    endloop
  endfacet
  facet normal 0 0 -1
    outer loop
      vertex 8.3367 1.06042 0
      vertex 48.9074 10.3956 0
      vertex 50 0 0
    endloop
  endfacet
  facet normal 0 0 -1
    outer loop
      vertex 20.2705 -4.89045 0
      vertex 50 0 0
      vertex 48.9074 -10.3956 0
    endloop
  endfacet
  facet normal 0 0 -1
    outer loop
      vertex 40.5961 19.6854 0
      vertex 48.9074 10.3956 0
      vertex 8.3367 1.06042 0
    endloop
  endfacet
  facet normal 0 0 -1
    outer loop
      vertex 39.9901 -29.901 0
      vertex -14.3705 -15.1095 0
      vertex 14.3705 -15.1095 0
    endloop
  endfacet
  facet normal 0 0 -1
    outer loop
      vertex -14.3705 -15.1095 0
      vertex 25 -43.3013 0
      vertex 15.4508 -47.5528 0
    endloop
  endfacet
  facet normal 0 0 -1
    outer loop
      vertex -14.3705 -15.1095 0
      vertex 39.9901 -29.901 0
      vertex 33.4565 -37.1572 0
    endloop
  endfacet
  facet normal 0 0 -1
    outer loop
      vertex -20.2705 -4.89045 0
      vertex 20.2705 -4.89045 0
      vertex 14.3705 -15.1095 0
    endloop
  endfacet
  facet normal 0 0 -1
    outer loop
      vertex -20.2705 -4.89045 0
      vertex 14.3705 -15.1095 0
      vertex -14.3705 -15.1095 0
    endloop
  endfacet
  facet normal 0 0 -1
    outer loop
      vertex -14.3705 -15.1095 0
      vertex 33.4565 -37.1572 0
      vertex 25 -43.3013 0
    endloop
  endfacet
  facet normal 0 0 -1
    outer loop
      vertex -20.2705 -4.89045 0
      vertex 50 0 0
      vertex 20.2705 -4.89045 0
    endloop
  endfacet
  facet normal 0 0 -1
    outer loop
      vertex -45.8901 -19.6819 0
      vertex -48.9074 -10.3956 0
      vertex -20.2705 -4.89045 0
    endloop
  endfacet
  facet normal 0 0 -1
    outer loop
      vertex -1.29904 -0.75 0
      vertex -20.2705 -4.89045 0
      vertex -48.9074 -10.3956 0
    endloop
  endfacet
  facet normal 0 0 -1
    outer loop
      vertex -1.29904 0.75 0
      vertex -48.9074 -10.3956 0
      vertex -0.75 1.29904 0
    endloop
  endfacet
  facet normal 0 0 -1
    outer loop
      vertex 1.29904 -0.75 0
      vertex 50 0 0
      vertex 0.75 -1.29904 0
    endloop
  endfacet
  facet normal 0 0 -1
    outer loop
      vertex 8.3367 1.06042 0
      vertex 0 1.5 0
      vertex 5.0867 6.68958 0
    endloop
  endfacet
  facet normal 0 0 -1
    outer loop
      vertex -20.2705 -4.89045 0
      vertex -1.29904 -0.75 0
      vertex -0.75 -1.29904 0
    endloop
  endfacet
  facet normal 0 0 -1
    outer loop
      vertex 1.5 0 0
      vertex 8.3367 1.06042 0
      vertex 50 0 0
    endloop
  endfacet
  facet normal 0 0 -1
    outer loop
      vertex -20.2705 -4.89045 0
      vertex -0.75 -1.29904 0
      vertex 0 -1.5 0
    endloop
  endfacet
  facet normal 0 0 -1
    outer loop
      vertex -20.2705 -4.89045 0
      vertex 0 -1.5 0
      vertex 50 0 0
    endloop
  endfacet
  facet normal 0 0 -1
    outer loop
      vertex 0 -1.5 0
      vertex 0.75 -1.29904 0
      vertex 50 0 0
    endloop
  endfacet
  facet normal 0 0 -1
    outer loop
      vertex 40.5961 19.6854 0
      vertex 45.6773 20.3368 0
      vertex 48.9074 10.3956 0
    endloop
  endfacet
  facet normal 0 0 -1
    outer loop
      vertex 1.5 0 0
      vertex 50 0 0
      vertex 1.29904 -0.75 0
    endloop
  endfacet
  facet normal 0 0 -1
    outer loop
      vertex -48.9074 -10.3956 0
      vertex 0 1.5 0
      vertex -0.75 1.29904 0
    endloop
  endfacet
  facet normal 0 0 -1
    outer loop
      vertex 5.0867 6.68958 0
      vertex -48.9074 -10.3956 0
      vertex 37.3461 25.3146 0
    endloop
  endfacet
  facet normal 0 0 -1
    outer loop
      vertex -48.9074 -10.3956 0
      vertex -1.29904 0.75 0
      vertex -1.5 0 0
    endloop
  endfacet
  facet normal 0 0 -1
    outer loop
      vertex 8.3367 1.06042 0
      vertex 1.5 0 0
      vertex 1.29904 0.75 0
    endloop
  endfacet
  facet normal 0 0 -1
    outer loop
      vertex -48.9074 -10.3956 0
      vertex 5.0867 6.68958 0
      vertex 0 1.5 0
    endloop
  endfacet
  facet normal 0 0 -1
    outer loop
      vertex 37.3461 25.3146 0
      vertex 40.4508 29.3893 0
      vertex 40.5961 19.6854 0
    endloop
  endfacet
  facet normal 0 0 -1
    outer loop
      vertex 8.3367 1.06042 0
      vertex 1.29904 0.75 0
      vertex 0.75 1.29904 0
    endloop
  endfacet
  facet normal 0 0 -1
    outer loop
      vertex -48.9074 -10.3956 0
      vertex 40.4508 29.3893 0
      vertex 37.3461 25.3146 0
    endloop
  endfacet
  facet normal 0 0 -1
    outer loop
      vertex 8.3367 1.06042 0
      vertex 0.75 1.29904 0
      vertex 0 1.5 0
    endloop
  endfacet
  facet normal 0 0 -1
    outer loop
      vertex 20.2705 -4.89045 0
      vertex 48.9074 -10.3956 0
      vertex 45.8901 -19.6819 0
    endloop
  endfacet
  facet normal 0 0 -1
    outer loop
      vertex -14.3705 -15.1095 0
      vertex 15.4508 -47.5528 0
      vertex 5.22642 -49.7261 0
    endloop
  endfacet
  facet normal 0 0 -1
    outer loop
      vertex -14.3705 -15.1095 0
      vertex 5.22642 -49.7261 0
      vertex -5.22642 -49.7261 0
    endloop
  endfacet
  facet normal 0 0 -1
    outer loop
      vertex -14.3705 -15.1095 0
      vertex -5.22642 -49.7261 0
      vertex -15.4508 -47.5528 0
    endloop
  endfacet
  facet normal 0 0 -1
    outer loop
      vertex -14.3705 -15.1095 0
      vertex -15.4508 -47.5528 0
      vertex -25 -43.3013 0
    endloop
  endfacet
  facet normal 0 0 -1
    outer loop
      vertex -14.3705 -15.1095 0
      vertex -25 -43.3013 0
      vertex -33.4565 -37.1572 0
    endloop
  endfacet
  facet normal 0 0 -1
    outer loop
      vertex -14.3705 -15.1095 0
      vertex -33.4565 -37.1572 0
      vertex -39.9901 -29.901 0
    endloop
  endfacet
  facet normal 0 0 -1
    outer loop
      vertex -1.29904 -0.75 0
      vertex -48.9074 -10.3956 0
      vertex -1.5 0 0
    endloop
  endfacet
  facet normal -0.994522 0.104528 0
    outer loop
      vertex -50 0 0
      vertex -50 0 5
      vertex -48.9074 10.3956 0
    endloop
  endfacet
  facet normal -0.994522 0.104528 0
    outer loop
      vertex -48.9074 10.3956 0
      vertex -50 0 5
      vertex -48.9074 10.3956 5
    endloop
  endfacet
  facet normal -0.994522 -0.104528 0
    outer loop
      vertex -50 0 0
      vertex -48.9074 -10.3956 0
      vertex -50 0 5
    endloop
  endfacet
  facet normal -0.994522 -0.104528 0
    outer loop
      vertex -50 0 5
      vertex -48.9074 -10.3956 0
      vertex -48.9074 -10.3956 5
    endloop
  endfacet
  facet normal -0.951057 -0.309017 0
    outer loop
      vertex -48.9074 -10.3956 0
      vertex -45.8901 -19.6819 0
      vertex -48.9074 -10.3956 5
    endloop
  endfacet
  facet normal -0.951057 -0.309017 0
    outer loop
      vertex -48.9074 -10.3956 5
      vertex -45.8901 -19.6819 0
      vertex -45.8901 -19.6819 5
    endloop
  endfacet
  facet normal 0.5 -0.866025 0
    outer loop
      vertex -20.2705 -4.89045 0
      vertex -20.2705 -4.89045 19.9
      vertex -43.6532 -18.3905 19.9
    endloop
  endfacet
  facet normal 0.5 -0.866025 0
    outer loop
      vertex -45.8901 -19.6819 5
      vertex -20.2705 -4.89045 0
      vertex -43.6532 -18.3905 5
    endloop
  endfacet
  facet normal 0.5 -0.866025 0
    outer loop
      vertex -43.6532 -18.3905 5
      vertex -20.2705 -4.89045 0
      vertex -43.6532 -18.3905 19.9
    endloop
  endfacet
  facet normal 0.5 -0.866025 0
    outer loop
      vertex -45.8901 -19.6819 0
      vertex -20.2705 -4.89045 0
      vertex -45.8901 -19.6819 5
    endloop
  endfacet
  facet normal -0.866025 -0.5 0
    outer loop
      vertex -14.3705 -15.1095 19.9
      vertex -20.2705 -4.89045 19.9
      vertex -14.3705 -15.1095 0
    endloop
  endfacet
  facet normal -0.866025 -0.5 0
    outer loop
      vertex -14.3705 -15.1095 0
      vertex -20.2705 -4.89045 19.9
      vertex -20.2705 -4.89045 0
    endloop
  endfacet
  facet normal -0.5 0.866025 0
    outer loop
      vertex -37.7532 -28.6095 5
      vertex -37.7532 -28.6095 19.9
      vertex -14.3705 -15.1095 19.9
    endloop
  endfacet
  facet normal -0.5 0.866025 0
    outer loop
      vertex -37.7532 -28.6095 5
      vertex -14.3705 -15.1095 19.9
      vertex -14.3705 -15.1095 0
    endloop
  endfacet
  facet normal -0.5 0.866025 0
    outer loop
      vertex -37.7532 -28.6095 5
      vertex -14.3705 -15.1095 0
      vertex -39.9901 -29.901 5
    endloop
  endfacet
  facet normal -0.5 0.866025 0
    outer loop
      vertex -14.3705 -15.1095 0
      vertex -39.9901 -29.901 0
      vertex -39.9901 -29.901 5
    endloop
  endfacet
  facet normal -0.743145 -0.669131 0
    outer loop
      vertex -39.9901 -29.901 0
      vertex -33.4565 -37.1572 0
      vertex -39.9901 -29.901 5
    endloop
  endfacet
  facet normal -0.743145 -0.669131 0
    outer loop
      vertex -39.9901 -29.901 5
      vertex -33.4565 -37.1572 0
      vertex -33.4565 -37.1572 5
    endloop
  endfacet
  facet normal -0.587785 -0.809017 0
    outer loop
      vertex -33.4565 -37.1572 5
      vertex -33.4565 -37.1572 0
      vertex -25 -43.3013 0
    endloop
  endfacet
  facet normal -0.587785 -0.809017 0
    outer loop
      vertex -25 -43.3013 5
      vertex -33.4565 -37.1572 5
      vertex -25 -43.3013 0
    endloop
  endfacet
  facet normal -0.406737 -0.913545 0
    outer loop
      vertex -25 -43.3013 5
      vertex -25 -43.3013 0
      vertex -15.4508 -47.5528 0
    endloop
  endfacet
  facet normal -0.406737 -0.913545 0
    outer loop
      vertex -15.4508 -47.5528 5
      vertex -25 -43.3013 5
      vertex -15.4508 -47.5528 0
    endloop
  endfacet
  facet normal -0.207912 -0.978148 0
    outer loop
      vertex -15.4508 -47.5528 5
      vertex -15.4508 -47.5528 0
      vertex -5.22642 -49.7261 0
    endloop
  endfacet
  facet normal -0.207912 -0.978148 0
    outer loop
      vertex -5.22642 -49.7261 5
      vertex -15.4508 -47.5528 5
      vertex -5.22642 -49.7261 0
    endloop
  endfacet
  facet normal 0 -1 0
    outer loop
      vertex -5.22642 -49.7261 5
      vertex -5.22642 -49.7261 0
      vertex 5.22642 -49.7261 0
    endloop
  endfacet
  facet normal 0 -1 0
    outer loop
      vertex 5.22642 -49.7261 5
      vertex -5.22642 -49.7261 5
      vertex 5.22642 -49.7261 0
    endloop
  endfacet
  facet normal 0.207912 -0.978148 0
    outer loop
      vertex 5.22642 -49.7261 5
      vertex 5.22642 -49.7261 0
      vertex 15.4508 -47.5528 0
    endloop
  endfacet
  facet normal 0.207912 -0.978148 0
    outer loop
      vertex 15.4508 -47.5528 5
      vertex 5.22642 -49.7261 5
      vertex 15.4508 -47.5528 0
    endloop
  endfacet
  facet normal 0.406737 -0.913545 0
    outer loop
      vertex 15.4508 -47.5528 5
      vertex 15.4508 -47.5528 0
      vertex 25 -43.3013 0
    endloop
  endfacet
  facet normal 0.406737 -0.913545 0
    outer loop
      vertex 25 -43.3013 5
      vertex 15.4508 -47.5528 5
      vertex 25 -43.3013 0
    endloop
  endfacet
  facet normal 0.587785 -0.809017 0
    outer loop
      vertex 25 -43.3013 5
      vertex 25 -43.3013 0
      vertex 33.4565 -37.1572 0
    endloop
  endfacet
  facet normal 0.587785 -0.809017 0
    outer loop
      vertex 33.4565 -37.1572 5
      vertex 25 -43.3013 5
      vertex 33.4565 -37.1572 0
    endloop
  endfacet
  facet normal 0.743145 -0.669131 0
    outer loop
      vertex 33.4565 -37.1572 5
      vertex 33.4565 -37.1572 0
      vertex 39.9901 -29.901 0
    endloop
  endfacet
  facet normal 0.743145 -0.669131 0
    outer loop
      vertex 39.9901 -29.901 5
      vertex 33.4565 -37.1572 5
      vertex 39.9901 -29.901 0
    endloop
  endfacet
  facet normal 0.5 0.866025 0
    outer loop
      vertex 37.7532 -28.6095 19.9
      vertex 37.7532 -28.6095 5
      vertex 14.3705 -15.1095 19.9
    endloop
  endfacet
  facet normal 0.5 0.866025 0
    outer loop
      vertex 39.9901 -29.901 0
      vertex 37.7532 -28.6095 5
      vertex 39.9901 -29.901 5
    endloop
  endfacet
  facet normal 0.5 0.866025 0
    outer loop
      vertex 14.3705 -15.1095 19.9
      vertex 37.7532 -28.6095 5
      vertex 39.9901 -29.901 0
    endloop
  endfacet
  facet normal 0.5 0.866025 0
    outer loop
      vertex 14.3705 -15.1095 19.9
      vertex 39.9901 -29.901 0
      vertex 14.3705 -15.1095 0
    endloop
  endfacet
  facet normal 0.866025 -0.5 0
    outer loop
      vertex 20.2705 -4.89045 0
      vertex 20.2705 -4.89045 19.9
      vertex 14.3705 -15.1095 19.9
    endloop
  endfacet
  facet normal 0.866025 -0.5 0
    outer loop
      vertex 14.3705 -15.1095 0
      vertex 20.2705 -4.89045 0
      vertex 14.3705 -15.1095 19.9
    endloop
  endfacet
  facet normal -0.5 -0.866025 0
    outer loop
      vertex 45.8901 -19.6819 0
      vertex 45.8901 -19.6819 5
      vertex 43.6532 -18.3905 5
    endloop
  endfacet
  facet normal -0.5 -0.866025 0
    outer loop
      vertex 20.2705 -4.89045 19.9
      vertex 45.8901 -19.6819 0
      vertex 43.6532 -18.3905 5
    endloop
  endfacet
  facet normal -0.5 -0.866025 0
    outer loop
      vertex 43.6532 -18.3905 19.9
      vertex 20.2705 -4.89045 19.9
      vertex 43.6532 -18.3905 5
    endloop
  endfacet
  facet normal -0.5 -0.866025 0
    outer loop
      vertex 20.2705 -4.89045 19.9
      vertex 20.2705 -4.89045 0
      vertex 45.8901 -19.6819 0
    endloop
  endfacet
  facet normal 0.951057 -0.309017 0
    outer loop
      vertex 45.8901 -19.6819 5
      vertex 45.8901 -19.6819 0
      vertex 48.9074 -10.3956 0
    endloop
  endfacet
  facet normal 0.951057 -0.309017 0
    outer loop
      vertex 48.9074 -10.3956 5
      vertex 45.8901 -19.6819 5
      vertex 48.9074 -10.3956 0
    endloop
  endfacet
  facet normal 0.994522 -0.104528 0
    outer loop
      vertex 48.9074 -10.3956 5
      vertex 48.9074 -10.3956 0
      vertex 50 0 0
    endloop
  endfacet
  facet normal 0.994522 -0.104528 0
    outer loop
      vertex 50 0 5
      vertex 48.9074 -10.3956 5
      vertex 50 0 0
    endloop
  endfacet
  facet normal 0.994522 0.104528 0
    outer loop
      vertex 50 0 0
      vertex 48.9074 10.3956 0
      vertex 48.9074 10.3956 5
    endloop
  endfacet
  facet normal 0.994522 0.104528 0
    outer loop
      vertex 50 0 5
      vertex 50 0 0
      vertex 48.9074 10.3956 5
    endloop
  endfacet
  facet normal 0.951057 0.309017 0
    outer loop
      vertex 48.9074 10.3956 0
      vertex 45.6773 20.3368 0
      vertex 45.6773 20.3368 5
    endloop
  endfacet
  facet normal 0.951057 0.309017 0
    outer loop
      vertex 48.9074 10.3956 5
      vertex 48.9074 10.3956 0
      vertex 45.6773 20.3368 5
    endloop
  endfacet
  facet normal 0.866025 0.5 0
    outer loop
      vertex 45.6773 20.3368 0
      vertex 40.4508 29.3893 0
      vertex 40.4508 29.3893 5
    endloop
  endfacet
  facet normal 0.866025 0.5 0
    outer loop
      vertex 45.6773 20.3368 5
      vertex 45.6773 20.3368 0
      vertex 40.4508 29.3893 5
    endloop
  endfacet
  facet normal 0.743145 0.669131 0
    outer loop
      vertex 40.4508 29.3893 0
      vertex 33.4565 37.1572 0
      vertex 33.4565 37.1572 5
    endloop
  endfacet
  facet normal 0.743145 0.669131 0
    outer loop
      vertex 40.4508 29.3893 5
      vertex 40.4508 29.3893 0
      vertex 33.4565 37.1572 5
    endloop
  endfacet
  facet normal 0.587785 0.809017 0
    outer loop
      vertex 25 43.3013 0
      vertex 25 43.3013 5
      vertex 33.4565 37.1572 0
    endloop
  endfacet
  facet normal 0.587785 0.809017 0
    outer loop
      vertex 33.4565 37.1572 0
      vertex 25 43.3013 5
      vertex 33.4565 37.1572 5
    endloop
  endfacet
  facet normal 0.406737 0.913545 0
    outer loop
      vertex 15.4508 47.5528 0
      vertex 15.4508 47.5528 5
      vertex 25 43.3013 0
    endloop
  endfacet
  facet normal 0.406737 0.913545 0
    outer loop
      vertex 25 43.3013 0
      vertex 15.4508 47.5528 5
      vertex 25 43.3013 5
    endloop
  endfacet
  facet normal 0.207912 0.978148 0
    outer loop
      vertex 5.9 49.5829 0
      vertex 5.9 49.5829 5
      vertex 15.4508 47.5528 0
    endloop
  endfacet
  facet normal 0.207912 0.978148 0
    outer loop
      vertex 15.4508 47.5528 0
      vertex 5.9 49.5829 5
      vertex 15.4508 47.5528 5
    endloop
  endfacet
  facet normal -1 2.22045e-16 0
    outer loop
      vertex 5.9 47 19.9
      vertex 5.9 47 5
      vertex 5.9 20 19.9
    endloop
  endfacet
  facet normal -1 2.22045e-16 0
    outer loop
      vertex 5.9 49.5829 0
      vertex 5.9 47 5
      vertex 5.9 49.5829 5
    endloop
  endfacet
  facet normal -1 2.22045e-16 0
    outer loop
      vertex 5.9 20 19.9
      vertex 5.9 47 5
      vertex 5.9 49.5829 0
    endloop
  endfacet
  facet normal -1 2.22045e-16 0
    outer loop
      vertex 5.9 20 19.9
      vertex 5.9 49.5829 0
      vertex 5.9 20 0
    endloop
  endfacet
  facet normal 2.22045e-16 1 0
    outer loop
      vertex 5.9 20 19.9
      vertex 5.9 20 0
      vertex -5.9 20 19.9
    endloop
  endfacet
  facet normal 2.22045e-16 1 0
    outer loop
      vertex -5.9 20 19.9
      vertex 5.9 20 0
      vertex -5.9 20 0
    endloop
  endfacet
  facet normal 1 -2.22045e-16 0
    outer loop
      vertex -5.9 49.5829 0
      vertex -5.9 49.5829 5
      vertex -5.9 47 5
    endloop
  endfacet
  facet normal 1 -2.22045e-16 0
    outer loop
      vertex -5.9 20 19.9
      vertex -5.9 49.5829 0
      vertex -5.9 47 5
    endloop
  endfacet
  facet normal 1 -2.22045e-16 0
    outer loop
      vertex -5.9 47 19.9
      vertex -5.9 20 19.9
      vertex -5.9 47 5
    endloop
  endfacet
  facet normal 1 -2.22045e-16 0
    outer loop
      vertex -5.9 20 19.9
      vertex -5.9 20 0
      vertex -5.9 49.5829 0
    endloop
  endfacet
  facet normal -0.207912 0.978148 0
    outer loop
      vertex -15.4508 47.5528 0
      vertex -15.4508 47.5528 5
      vertex -5.9 49.5829 0
    endloop
  endfacet
  facet normal -0.207912 0.978148 0
    outer loop
      vertex -5.9 49.5829 0
      vertex -15.4508 47.5528 5
      vertex -5.9 49.5829 5
    endloop
  endfacet
  facet normal -0.406737 0.913545 0
    outer loop
      vertex -25 43.3013 0
      vertex -25 43.3013 5
      vertex -15.4508 47.5528 0
    endloop
  endfacet
  facet normal -0.406737 0.913545 0
    outer loop
      vertex -15.4508 47.5528 0
      vertex -25 43.3013 5
      vertex -15.4508 47.5528 5
    endloop
  endfacet
  facet normal -0.587785 0.809017 0
    outer loop
      vertex -33.4565 37.1572 0
      vertex -33.4565 37.1572 5
      vertex -25 43.3013 0
    endloop
  endfacet
  facet normal -0.587785 0.809017 0
    outer loop
      vertex -25 43.3013 0
      vertex -33.4565 37.1572 5
      vertex -25 43.3013 5
    endloop
  endfacet
  facet normal -0.743145 0.669131 0
    outer loop
      vertex -40.4508 29.3893 0
      vertex -40.4508 29.3893 5
      vertex -33.4565 37.1572 0
    endloop
  endfacet
  facet normal -0.743145 0.669131 0
    outer loop
      vertex -33.4565 37.1572 0
      vertex -40.4508 29.3893 5
      vertex -33.4565 37.1572 5
    endloop
  endfacet
  facet normal -0.866025 0.5 0
    outer loop
      vertex -45.6773 20.3368 0
      vertex -45.6773 20.3368 5
      vertex -40.4508 29.3893 0
    endloop
  endfacet
  facet normal -0.866025 0.5 0
    outer loop
      vertex -40.4508 29.3893 0
      vertex -45.6773 20.3368 5
      vertex -40.4508 29.3893 5
    endloop
  endfacet
  facet normal -0.951057 0.309017 0
    outer loop
      vertex -48.9074 10.3956 0
      vertex -48.9074 10.3956 5
      vertex -45.6773 20.3368 0
    endloop
  endfacet
  facet normal -0.951057 0.309017 0
    outer loop
      vertex -45.6773 20.3368 0
      vertex -48.9074 10.3956 5
      vertex -45.6773 20.3368 5
    endloop
  endfacet
  facet normal 0.965926 -0.258819 0
    outer loop
      vertex -1.29904 0.75 0
      vertex -1.29904 0.75 5
      vertex -1.5 0 5
    endloop
  endfacet
  facet normal 0.965926 -0.258819 0
    outer loop
      vertex -1.5 0 0
      vertex -1.29904 0.75 0
      vertex -1.5 0 5
    endloop
  endfacet
  facet normal 0.965926 0.258819 0
    outer loop
      vertex -1.5 0 5
      vertex -1.29904 -0.75 5
      vertex -1.29904 -0.75 0
    endloop
  endfacet
  facet normal 0.965926 0.258819 0
    outer loop
      vertex -1.5 0 0
      vertex -1.5 0 5
      vertex -1.29904 -0.75 0
    endloop
  endfacet
  facet normal 0.707107 -0.707107 0
    outer loop
      vertex -0.75 1.29904 0
      vertex -0.75 1.29904 5
      vertex -1.29904 0.75 5
    endloop
  endfacet
  facet normal 0.707107 -0.707107 0
    outer loop
      vertex -1.29904 0.75 0
      vertex -0.75 1.29904 0
      vertex -1.29904 0.75 5
    endloop
  endfacet
  facet normal 0.258819 -0.965926 0
    outer loop
      vertex 0 1.5 0
      vertex 0 1.5 5
      vertex -0.75 1.29904 5
    endloop
  endfacet
  facet normal 0.258819 -0.965926 0
    outer loop
      vertex -0.75 1.29904 0
      vertex 0 1.5 0
      vertex -0.75 1.29904 5
    endloop
  endfacet
  facet normal -0.258819 -0.965926 0
    outer loop
      vertex 0.75 1.29904 0
      vertex 0.75 1.29904 5
      vertex 0 1.5 5
    endloop
  endfacet
  facet normal -0.258819 -0.965926 0
    outer loop
      vertex 0 1.5 0
      vertex 0.75 1.29904 0
      vertex 0 1.5 5
    endloop
  endfacet
  facet normal -0.707107 -0.707107 0
    outer loop
      vertex 1.29904 0.75 0
      vertex 1.29904 0.75 5
      vertex 0.75 1.29904 5
    endloop
  endfacet
  facet normal -0.707107 -0.707107 0
    outer loop
      vertex 0.75 1.29904 0
      vertex 1.29904 0.75 0
      vertex 0.75 1.29904 5
    endloop
  endfacet
  facet normal -0.965926 -0.258819 0
    outer loop
      vertex 1.5 0 5
      vertex 1.29904 0.75 5
      vertex 1.5 0 0
    endloop
  endfacet
  facet normal -0.965926 -0.258819 0
    outer loop
      vertex 1.5 0 0
      vertex 1.29904 0.75 5
      vertex 1.29904 0.75 0
    endloop
  endfacet
  facet normal -0.965926 0.258819 0
    outer loop
      vertex 1.5 0 5
      vertex 1.5 0 0
      vertex 1.29904 -0.75 5
    endloop
  endfacet
  facet normal -0.965926 0.258819 0
    outer loop
      vertex 1.29904 -0.75 5
      vertex 1.5 0 0
      vertex 1.29904 -0.75 0
    endloop
  endfacet
  facet normal -0.707107 0.707107 0
    outer loop
      vertex 1.29904 -0.75 5
      vertex 1.29904 -0.75 0
      vertex 0.75 -1.29904 5
    endloop
  endfacet
  facet normal -0.707107 0.707107 0
    outer loop
      vertex 0.75 -1.29904 5
      vertex 1.29904 -0.75 0
      vertex 0.75 -1.29904 0
    endloop
  endfacet
  facet normal -0.258819 0.965926 0
    outer loop
      vertex 0.75 -1.29904 5
      vertex 0.75 -1.29904 0
      vertex 0 -1.5 5
    endloop
  endfacet
  facet normal -0.258819 0.965926 0
    outer loop
      vertex 0 -1.5 5
      vertex 0.75 -1.29904 0
      vertex 0 -1.5 0
    endloop
  endfacet
  facet normal 0.258819 0.965926 0
    outer loop
      vertex 0 -1.5 5
      vertex 0 -1.5 0
      vertex -0.75 -1.29904 5
    endloop
  endfacet
  facet normal 0.258819 0.965926 0
    outer loop
      vertex -0.75 -1.29904 5
      vertex 0 -1.5 0
      vertex -0.75 -1.29904 0
    endloop
  endfacet
  facet normal 0.707107 0.707107 0
    outer loop
      vertex -0.75 -1.29904 5
      vertex -0.75 -1.29904 0
      vertex -1.29904 -0.75 5
    endloop
  endfacet
  facet normal 0.707107 0.707107 0
    outer loop
      vertex -1.29904 -0.75 5
      vertex -0.75 -1.29904 0
      vertex -1.29904 -0.75 0
    endloop
  endfacet
  facet normal 0.866025 0.5 0
    outer loop
      vertex 5.0867 6.68958 5
      vertex 8.3367 1.06042 5
      vertex 8.3367 1.06042 0
    endloop
  endfacet
  facet normal 0.866025 0.5 0
    outer loop
      vertex 5.0867 6.68958 0
      vertex 5.0867 6.68958 5
      vertex 8.3367 1.06042 0
    endloop
  endfacet
  facet normal 0.5 -0.866025 0
    outer loop
      vertex 37.3461 25.3146 0
      vertex 37.3461 25.3146 5
      vertex 5.0867 6.68958 5
    endloop
  endfacet
  facet normal 0.5 -0.866025 0
    outer loop
      vertex 5.0867 6.68958 0
      vertex 37.3461 25.3146 0
      vertex 5.0867 6.68958 5
    endloop
  endfacet
  facet normal -0.866025 -0.5 0
    outer loop
      vertex 40.5961 19.6854 5
      vertex 37.3461 25.3146 5
      vertex 40.5961 19.6854 0
    endloop
  endfacet
  facet normal -0.866025 -0.5 0
    outer loop
      vertex 40.5961 19.6854 0
      vertex 37.3461 25.3146 5
      vertex 37.3461 25.3146 0
    endloop
  endfacet
  facet normal -0.5 0.866025 0
    outer loop
      vertex 40.5961 19.6854 5
      vertex 40.5961 19.6854 0
      vertex 8.3367 1.06042 5
    endloop
  endfacet
  facet normal -0.5 0.866025 0
    outer loop
      vertex 8.3367 1.06042 5
      vertex 40.5961 19.6854 0
      vertex 8.3367 1.06042 0
    endloop
  endfacet
  facet normal 0 0 1
    outer loop
      vertex -48.9074 10.3956 5
      vertex -50 0 5
      vertex -48.9074 -10.3956 5
    endloop
  endfacet
  facet normal 0 0 1
    outer loop
      vertex -48.6282 -9.7735 5
      vertex -22.6474 5.2265 5
      vertex -48.9074 10.3956 5
    endloop
  endfacet
  facet normal 0 0 1
    outer loop
      vertex -48.6282 -9.7735 5
      vertex -48.9074 10.3956 5
      vertex -48.9074 -10.3956 5
    endloop
  endfacet
  facet normal 0 0 1
    outer loop
      vertex -45.8901 -19.6819 5
      vertex -48.6282 -9.7735 5
      vertex -48.9074 -10.3956 5
    endloop
  endfacet
  facet normal 0 0 1
    outer loop
      vertex 15.4508 -47.5528 5
      vertex -22.6474 5.2265 5
      vertex -6.79743 -22.2265 5
    endloop
  endfacet
  facet normal 0 0 1
    outer loop
      vertex 15.85 47 5
      vertex 15.85 17 5
      vertex 37.3461 25.3146 5
    endloop
  endfacet
  facet normal 0 0 1
    outer loop
      vertex -25 -43.3013 5
      vertex -6.79743 -22.2265 5
      vertex -32.7782 -37.2265 5
    endloop
  endfacet
  facet normal 0 0 1
    outer loop
      vertex 37.7532 -28.6095 5
      vertex 33.4565 -37.1572 5
      vertex 39.9901 -29.901 5
    endloop
  endfacet
  facet normal 0 0 1
    outer loop
      vertex -33.4565 -37.1572 5
      vertex -32.7782 -37.2265 5
      vertex -39.9901 -29.901 5
    endloop
  endfacet
  facet normal 0 0 1
    outer loop
      vertex -25 -43.3013 5
      vertex -32.7782 -37.2265 5
      vertex -33.4565 -37.1572 5
    endloop
  endfacet
  facet normal 0 0 1
    outer loop
      vertex -15.4508 -47.5528 5
      vertex -6.79743 -22.2265 5
      vertex -25 -43.3013 5
    endloop
  endfacet
  facet normal 0 0 1
    outer loop
      vertex -5.22642 -49.7261 5
      vertex -6.79743 -22.2265 5
      vertex -15.4508 -47.5528 5
    endloop
  endfacet
  facet normal 0 0 1
    outer loop
      vertex 5.22642 -49.7261 5
      vertex -6.79743 -22.2265 5
      vertex -5.22642 -49.7261 5
    endloop
  endfacet
  facet normal 0 0 1
    outer loop
      vertex 15.4508 -47.5528 5
      vertex -6.79743 -22.2265 5
      vertex 5.22642 -49.7261 5
    endloop
  endfacet
  facet normal 0 0 1
    outer loop
      vertex 25 -43.3013 5
      vertex -22.6474 5.2265 5
      vertex 15.4508 -47.5528 5
    endloop
  endfacet
  facet normal 0 0 1
    outer loop
      vertex 6.79743 -22.2265 5
      vertex -22.6474 5.2265 5
      vertex 25 -43.3013 5
    endloop
  endfacet
  facet normal 0 0 1
    outer loop
      vertex 6.79743 -22.2265 5
      vertex -0.75 -1.29904 5
      vertex -22.6474 5.2265 5
    endloop
  endfacet
  facet normal 0 0 1
    outer loop
      vertex 33.4565 -37.1572 5
      vertex 32.7782 -37.2265 5
      vertex 25 -43.3013 5
    endloop
  endfacet
  facet normal 0 0 1
    outer loop
      vertex 32.7782 -37.2265 5
      vertex 6.79743 -22.2265 5
      vertex 25 -43.3013 5
    endloop
  endfacet
  facet normal 0 0 1
    outer loop
      vertex 8.3367 1.06042 5
      vertex 0 1.5 5
      vertex 0.75 1.29904 5
    endloop
  endfacet
  facet normal 0 0 1
    outer loop
      vertex 50 0 5
      vertex 22.6474 5.2265 5
      vertex 48.6282 -9.7735 5
    endloop
  endfacet
  facet normal 0 0 1
    outer loop
      vertex 5.9 47 5
      vertex 15.85 47 5
      vertex 15.4508 47.5528 5
    endloop
  endfacet
  facet normal 0 0 1
    outer loop
      vertex 48.9074 -10.3956 5
      vertex 48.6282 -9.7735 5
      vertex 45.8901 -19.6819 5
    endloop
  endfacet
  facet normal 0 0 1
    outer loop
      vertex 50 0 5
      vertex 48.6282 -9.7735 5
      vertex 48.9074 -10.3956 5
    endloop
  endfacet
  facet normal 0 0 1
    outer loop
      vertex 48.9074 10.3956 5
      vertex 22.6474 5.2265 5
      vertex 50 0 5
    endloop
  endfacet
  facet normal 0 0 1
    outer loop
      vertex 8.3367 1.06042 5
      vertex -48.9074 10.3956 5
      vertex -22.6474 5.2265 5
    endloop
  endfacet
  facet normal 0 0 1
    outer loop
      vertex 8.3367 1.06042 5
      vertex 5.0867 6.68958 5
      vertex -48.9074 10.3956 5
    endloop
  endfacet
  facet normal 0 0 1
    outer loop
      vertex 5.0867 6.68958 5
      vertex 15.85 17 5
      vertex -48.9074 10.3956 5
    endloop
  endfacet
  facet normal 0 0 1
    outer loop
      vertex 8.3367 1.06042 5
      vertex -22.6474 5.2265 5
      vertex 0 1.5 5
    endloop
  endfacet
  facet normal 0 0 1
    outer loop
      vertex -5.9 47 5
      vertex -5.9 49.5829 5
      vertex -15.85 47 5
    endloop
  endfacet
  facet normal 0 0 1
    outer loop
      vertex 5.9 49.5829 5
      vertex 5.9 47 5
      vertex 15.4508 47.5528 5
    endloop
  endfacet
  facet normal 0 0 1
    outer loop
      vertex 8.3367 1.06042 5
      vertex 0.75 1.29904 5
      vertex 1.29904 0.75 5
    endloop
  endfacet
  facet normal 0 0 1
    outer loop
      vertex 15.4508 47.5528 5
      vertex 15.85 47 5
      vertex 25 43.3013 5
    endloop
  endfacet
  facet normal 0 0 1
    outer loop
      vertex 15.85 17 5
      vertex -15.85 17 5
      vertex -48.9074 10.3956 5
    endloop
  endfacet
  facet normal 0 0 1
    outer loop
      vertex -15.85 17 5
      vertex -15.85 47 5
      vertex -48.9074 10.3956 5
    endloop
  endfacet
  facet normal 0 0 1
    outer loop
      vertex -15.4508 47.5528 5
      vertex -48.9074 10.3956 5
      vertex -15.85 47 5
    endloop
  endfacet
  facet normal 0 0 1
    outer loop
      vertex -15.4508 47.5528 5
      vertex -15.85 47 5
      vertex -5.9 49.5829 5
    endloop
  endfacet
  facet normal 0 0 1
    outer loop
      vertex -25 43.3013 5
      vertex -48.9074 10.3956 5
      vertex -15.4508 47.5528 5
    endloop
  endfacet
  facet normal 0 0 1
    outer loop
      vertex -33.4565 37.1572 5
      vertex -48.9074 10.3956 5
      vertex -25 43.3013 5
    endloop
  endfacet
  facet normal 0 0 1
    outer loop
      vertex -40.4508 29.3893 5
      vertex -48.9074 10.3956 5
      vertex -33.4565 37.1572 5
    endloop
  endfacet
  facet normal 0 0 1
    outer loop
      vertex -45.6773 20.3368 5
      vertex -48.9074 10.3956 5
      vertex -40.4508 29.3893 5
    endloop
  endfacet
  facet normal 0 0 1
    outer loop
      vertex 15.85 47 5
      vertex 40.4508 29.3893 5
      vertex 33.4565 37.1572 5
    endloop
  endfacet
  facet normal 0 0 1
    outer loop
      vertex -1.5 0 5
      vertex -22.6474 5.2265 5
      vertex -1.29904 -0.75 5
    endloop
  endfacet
  facet normal 0 0 1
    outer loop
      vertex -1.29904 0.75 5
      vertex -22.6474 5.2265 5
      vertex -1.5 0 5
    endloop
  endfacet
  facet normal 0 0 1
    outer loop
      vertex -0.75 1.29904 5
      vertex -22.6474 5.2265 5
      vertex -1.29904 0.75 5
    endloop
  endfacet
  facet normal 0 0 1
    outer loop
      vertex 0 1.5 5
      vertex -22.6474 5.2265 5
      vertex -0.75 1.29904 5
    endloop
  endfacet
  facet normal 0 0 1
    outer loop
      vertex 5.0867 6.68958 5
      vertex 37.3461 25.3146 5
      vertex 15.85 17 5
    endloop
  endfacet
  facet normal 0 0 1
    outer loop
      vertex 8.3367 1.06042 5
      vertex 1.29904 0.75 5
      vertex 1.5 0 5
    endloop
  endfacet
  facet normal 0 0 1
    outer loop
      vertex 43.6532 -18.3905 5
      vertex 45.8901 -19.6819 5
      vertex 48.6282 -9.7735 5
    endloop
  endfacet
  facet normal 0 0 1
    outer loop
      vertex 8.3367 1.06042 5
      vertex 1.5 0 5
      vertex 1.29904 -0.75 5
    endloop
  endfacet
  facet normal 0 0 1
    outer loop
      vertex 15.85 47 5
      vertex 33.4565 37.1572 5
      vertex 25 43.3013 5
    endloop
  endfacet
  facet normal 0 0 1
    outer loop
      vertex 15.85 47 5
      vertex 37.3461 25.3146 5
      vertex 40.4508 29.3893 5
    endloop
  endfacet
  facet normal 0 0 1
    outer loop
      vertex -1.29904 -0.75 5
      vertex -22.6474 5.2265 5
      vertex -0.75 -1.29904 5
    endloop
  endfacet
  facet normal 0 0 1
    outer loop
      vertex 37.3461 25.3146 5
      vertex 40.5961 19.6854 5
      vertex 45.6773 20.3368 5
    endloop
  endfacet
  facet normal 0 0 1
    outer loop
      vertex 40.4508 29.3893 5
      vertex 37.3461 25.3146 5
      vertex 45.6773 20.3368 5
    endloop
  endfacet
  facet normal 0 0 1
    outer loop
      vertex 45.6773 20.3368 5
      vertex 40.5961 19.6854 5
      vertex 48.9074 10.3956 5
    endloop
  endfacet
  facet normal 0 0 1
    outer loop
      vertex -37.7532 -28.6095 5
      vertex -39.9901 -29.901 5
      vertex -32.7782 -37.2265 5
    endloop
  endfacet
  facet normal 0 0 1
    outer loop
      vertex -43.6532 -18.3905 5
      vertex -48.6282 -9.7735 5
      vertex -45.8901 -19.6819 5
    endloop
  endfacet
  facet normal 0 0 1
    outer loop
      vertex 37.7532 -28.6095 5
      vertex 32.7782 -37.2265 5
      vertex 33.4565 -37.1572 5
    endloop
  endfacet
  facet normal 0 0 1
    outer loop
      vertex 6.79743 -22.2265 5
      vertex 0 -1.5 5
      vertex -0.75 -1.29904 5
    endloop
  endfacet
  facet normal 0 0 1
    outer loop
      vertex 6.79743 -22.2265 5
      vertex 0.75 -1.29904 5
      vertex 0 -1.5 5
    endloop
  endfacet
  facet normal 0 0 1
    outer loop
      vertex 6.79743 -22.2265 5
      vertex 1.29904 -0.75 5
      vertex 0.75 -1.29904 5
    endloop
  endfacet
  facet normal 0 0 1
    outer loop
      vertex 6.79743 -22.2265 5
      vertex 8.3367 1.06042 5
      vertex 1.29904 -0.75 5
    endloop
  endfacet
  facet normal 0 0 1
    outer loop
      vertex 6.79743 -22.2265 5
      vertex 22.6474 5.2265 5
      vertex 8.3367 1.06042 5
    endloop
  endfacet
  facet normal 0 0 1
    outer loop
      vertex 40.5961 19.6854 5
      vertex 22.6474 5.2265 5
      vertex 48.9074 10.3956 5
    endloop
  endfacet
  facet normal 0 0 1
    outer loop
      vertex 40.5961 19.6854 5
      vertex 8.3367 1.06042 5
      vertex 22.6474 5.2265 5
    endloop
  endfacet
  facet normal -0.866025 -0.5 -2.22045e-16
    outer loop
      vertex -48.6282 -9.7735 5
      vertex -43.6532 -18.3905 5
      vertex -44.9032 -16.2254 19.9
    endloop
  endfacet
  facet normal -0.866025 -0.5 -2.22045e-16
    outer loop
      vertex -44.9032 -16.2254 19.9
      vertex -43.6532 -18.3905 5
      vertex -43.6532 -18.3905 19.9
    endloop
  endfacet
  facet normal -1.92296e-16 -1.11022e-16 1
    outer loop
      vertex -18.9224 -1.22539 19.9
      vertex -44.9032 -16.2254 19.9
      vertex -43.6532 -18.3905 19.9
    endloop
  endfacet
  facet normal -1.92296e-16 -1.11022e-16 1
    outer loop
      vertex -14.3705 -15.1095 19.9
      vertex -18.9224 -1.22539 19.9
      vertex -20.2705 -4.89045 19.9
    endloop
  endfacet
  facet normal -1.92296e-16 -1.11022e-16 1
    outer loop
      vertex -20.2705 -4.89045 19.9
      vertex -18.9224 -1.22539 19.9
      vertex -43.6532 -18.3905 19.9
    endloop
  endfacet
  facet normal -1.92296e-16 -1.11022e-16 1
    outer loop
      vertex -10.5224 -15.7746 19.9
      vertex -18.9224 -1.22539 19.9
      vertex -14.3705 -15.1095 19.9
    endloop
  endfacet
  facet normal -1.92296e-16 -1.11022e-16 1
    outer loop
      vertex -36.5032 -30.7746 19.9
      vertex -14.3705 -15.1095 19.9
      vertex -37.7532 -28.6095 19.9
    endloop
  endfacet
  facet normal -1.92296e-16 -1.11022e-16 1
    outer loop
      vertex -10.5224 -15.7746 19.9
      vertex -14.3705 -15.1095 19.9
      vertex -36.5032 -30.7746 19.9
    endloop
  endfacet
  facet normal -0.866025 -0.5 -2.22045e-16
    outer loop
      vertex -37.7532 -28.6095 19.9
      vertex -37.7532 -28.6095 5
      vertex -36.5032 -30.7746 19.9
    endloop
  endfacet
  facet normal -0.866025 -0.5 -2.22045e-16
    outer loop
      vertex -36.5032 -30.7746 19.9
      vertex -37.7532 -28.6095 5
      vertex -32.7782 -37.2265 5
    endloop
  endfacet
  facet normal 1.92296e-16 -1.11022e-16 1
    outer loop
      vertex 14.3705 -15.1095 19.9
      vertex 10.5224 -15.7746 19.9
      vertex 36.5032 -30.7746 19.9
    endloop
  endfacet
  facet normal 1.92296e-16 -1.11022e-16 1
    outer loop
      vertex 18.9224 -1.22539 19.9
      vertex 10.5224 -15.7746 19.9
      vertex 14.3705 -15.1095 19.9
    endloop
  endfacet
  facet normal 1.92296e-16 -1.11022e-16 1
    outer loop
      vertex 20.2705 -4.89045 19.9
      vertex 43.6532 -18.3905 19.9
      vertex 18.9224 -1.22539 19.9
    endloop
  endfacet
  facet normal 1.92296e-16 -1.11022e-16 1
    outer loop
      vertex 18.9224 -1.22539 19.9
      vertex 14.3705 -15.1095 19.9
      vertex 20.2705 -4.89045 19.9
    endloop
  endfacet
  facet normal 1.92296e-16 -1.11022e-16 1
    outer loop
      vertex 44.9032 -16.2254 19.9
      vertex 18.9224 -1.22539 19.9
      vertex 43.6532 -18.3905 19.9
    endloop
  endfacet
  facet normal 1.92296e-16 -1.11022e-16 1
    outer loop
      vertex 37.7532 -28.6095 19.9
      vertex 14.3705 -15.1095 19.9
      vertex 36.5032 -30.7746 19.9
    endloop
  endfacet
  facet normal 0.866025 -0.5 -2.22045e-16
    outer loop
      vertex 36.5032 -30.7746 19.9
      vertex 32.7782 -37.2265 5
      vertex 37.7532 -28.6095 5
    endloop
  endfacet
  facet normal 0.866025 -0.5 -2.22045e-16
    outer loop
      vertex 37.7532 -28.6095 19.9
      vertex 36.5032 -30.7746 19.9
      vertex 37.7532 -28.6095 5
    endloop
  endfacet
  facet normal 0.866025 -0.5 -2.22045e-16
    outer loop
      vertex 43.6532 -18.3905 19.9
      vertex 43.6532 -18.3905 5
      vertex 48.6282 -9.7735 5
    endloop
  endfacet
  facet normal 0.866025 -0.5 -2.22045e-16
    outer loop
      vertex 44.9032 -16.2254 19.9
      vertex 43.6532 -18.3905 19.9
      vertex 48.6282 -9.7735 5
    endloop
  endfacet
  facet normal 0 2.22045e-16 1
    outer loop
      vertex 5.9 20 19.9
      vertex -8.4 17 19.9
      vertex 8.4 17 19.9
    endloop
  endfacet
  facet normal 0 2.22045e-16 1
    outer loop
      vertex -5.9 20 19.9
      vertex -5.9 47 19.9
      vertex -8.4 47 19.9
    endloop
  endfacet
  facet normal 0 2.22045e-16 1
    outer loop
      vertex 8.4 47 19.9
      vertex 5.9 47 19.9
      vertex 8.4 17 19.9
    endloop
  endfacet
  facet normal 0 2.22045e-16 1
    outer loop
      vertex -5.9 20 19.9
      vertex -8.4 17 19.9
      vertex 5.9 20 19.9
    endloop
  endfacet
  facet normal 0 2.22045e-16 1
    outer loop
      vertex -8.4 47 19.9
      vertex -8.4 17 19.9
      vertex -5.9 20 19.9
    endloop
  endfacet
  facet normal 0 2.22045e-16 1
    outer loop
      vertex 5.9 47 19.9
      vertex 5.9 20 19.9
      vertex 8.4 17 19.9
    endloop
  endfacet
  facet normal 0 1 -2.22045e-16
    outer loop
      vertex 5.9 47 5
      vertex 5.9 47 19.9
      vertex 15.85 47 5
    endloop
  endfacet
  facet normal 0 1 -2.22045e-16
    outer loop
      vertex 15.85 47 5
      vertex 5.9 47 19.9
      vertex 8.4 47 19.9
    endloop
  endfacet
  facet normal 0 1 -2.22045e-16
    outer loop
      vertex -15.85 47 5
      vertex -8.4 47 19.9
      vertex -5.9 47 5
    endloop
  endfacet
  facet normal 0 1 -2.22045e-16
    outer loop
      vertex -5.9 47 5
      vertex -8.4 47 19.9
      vertex -5.9 47 19.9
    endloop
  endfacet
  facet normal -0.894427 9.93014e-17 0.447214
    outer loop
      vertex -15.85 17 5
      vertex -8.4 17 19.9
      vertex -15.85 47 5
    endloop
  endfacet
  facet normal -0.894427 9.93014e-17 0.447214
    outer loop
      vertex -15.85 47 5
      vertex -8.4 17 19.9
      vertex -8.4 47 19.9
    endloop
  endfacet
  facet normal 0 -1 2.22045e-16
    outer loop
      vertex -8.4 17 19.9
      vertex -15.85 17 5
      vertex 15.85 17 5
    endloop
  endfacet
  facet normal 0 -1 2.22045e-16
    outer loop
      vertex 8.4 17 19.9
      vertex -8.4 17 19.9
      vertex 15.85 17 5
    endloop
  endfacet
  facet normal 0.894427 9.93014e-17 0.447214
    outer loop
      vertex 8.4 47 19.9
      vertex 8.4 17 19.9
      vertex 15.85 17 5
    endloop
  endfacet
  facet normal 0.894427 9.93014e-17 0.447214
    outer loop
      vertex 15.85 47 5
      vertex 8.4 47 19.9
      vertex 15.85 17 5
    endloop
  endfacet
  facet normal 0.447214 0.774597 0.447214
    outer loop
      vertex 18.9224 -1.22539 19.9
      vertex 44.9032 -16.2254 19.9
      vertex 22.6474 5.2265 5
    endloop
  endfacet
  facet normal 0.447214 0.774597 0.447214
    outer loop
      vertex 22.6474 5.2265 5
      vertex 44.9032 -16.2254 19.9
      vertex 48.6282 -9.7735 5
    endloop
  endfacet
  facet normal -0.866025 0.5 2.22045e-16
    outer loop
      vertex 6.79743 -22.2265 5
      vertex 10.5224 -15.7746 19.9
      vertex 22.6474 5.2265 5
    endloop
  endfacet
  facet normal -0.866025 0.5 2.22045e-16
    outer loop
      vertex 22.6474 5.2265 5
      vertex 10.5224 -15.7746 19.9
      vertex 18.9224 -1.22539 19.9
    endloop
  endfacet
  facet normal -0.447214 -0.774597 0.447214
    outer loop
      vertex 10.5224 -15.7746 19.9
      vertex 6.79743 -22.2265 5
      vertex 32.7782 -37.2265 5
    endloop
  endfacet
  facet normal -0.447214 -0.774597 0.447214
    outer loop
      vertex 36.5032 -30.7746 19.9
      vertex 10.5224 -15.7746 19.9
      vertex 32.7782 -37.2265 5
    endloop
  endfacet
  facet normal 0.447214 -0.774597 0.447214
    outer loop
      vertex -10.5224 -15.7746 19.9
      vertex -36.5032 -30.7746 19.9
      vertex -32.7782 -37.2265 5
    endloop
  endfacet
  facet normal 0.447214 -0.774597 0.447214
    outer loop
      vertex -6.79743 -22.2265 5
      vertex -10.5224 -15.7746 19.9
      vertex -32.7782 -37.2265 5
    endloop
  endfacet
  facet normal 0.866025 0.5 2.22045e-16
    outer loop
      vertex -6.79743 -22.2265 5
      vertex -22.6474 5.2265 5
      vertex -18.9224 -1.22539 19.9
    endloop
  endfacet
  facet normal 0.866025 0.5 2.22045e-16
    outer loop
      vertex -10.5224 -15.7746 19.9
      vertex -6.79743 -22.2265 5
      vertex -18.9224 -1.22539 19.9
    endloop
  endfacet
  facet normal -0.447214 0.774597 0.447214
    outer loop
      vertex -48.6282 -9.7735 5
      vertex -44.9032 -16.2254 19.9
      vertex -22.6474 5.2265 5
    endloop
  endfacet
  facet normal -0.447214 0.774597 0.447214
    outer loop
      vertex -22.6474 5.2265 5
      vertex -44.9032 -16.2254 19.9
      vertex -18.9224 -1.22539 19.9
    endloop
  endfacet
endsolid OpenSCAD_Model
